<svg width="166" height="72" viewBox="0 0 166 72" fill="none" xmlns="http://www.w3.org/2000/svg">
<path d="M121.493 49.4691C121.476 49.4378 121.468 49.3978 121.468 49.3502C121.468 49.2713 121.522 49.2151 121.63 49.1837L121.953 49.0767L122.066 49.0529C122.14 49.0529 122.203 49.1048 122.253 49.2075C122.393 49.5718 122.621 49.8356 122.937 49.9978C123.252 50.1599 123.658 50.241 124.155 50.241C124.743 50.241 125.183 50.1481 125.473 49.9621C125.763 49.7762 125.909 49.5081 125.909 49.1599C125.909 48.8908 125.836 48.6821 125.692 48.5351C125.547 48.3881 125.351 48.2832 125.107 48.2194C124.862 48.1556 124.528 48.1048 124.106 48.0648C123.566 48.0172 123.127 47.9481 122.788 47.8572C122.447 47.7664 122.164 47.5956 121.936 47.3459C121.708 47.0962 121.594 46.7372 121.594 46.2691C121.594 45.7145 121.804 45.2778 122.222 44.961C122.641 44.6443 123.248 44.4854 124.044 44.4854C125.337 44.4854 126.183 44.9178 126.581 45.7816C126.606 45.8291 126.619 45.8724 126.619 45.9124C126.619 45.9913 126.569 46.0508 126.47 46.0908L126.159 46.2216C126.1 46.2454 126.055 46.2572 126.021 46.2572C125.988 46.2572 125.956 46.2432 125.928 46.2162C125.899 46.1881 125.872 46.1545 125.847 46.1145C125.706 45.8129 125.499 45.5859 125.226 45.4302C124.952 45.2756 124.562 45.1989 124.057 45.1989C123.518 45.1989 123.112 45.2886 122.839 45.4659C122.565 45.6443 122.428 45.9037 122.428 46.2454C122.428 46.5383 122.505 46.761 122.658 46.9113C122.812 47.0616 123.01 47.1654 123.255 47.2205C123.499 47.2756 123.849 47.3232 124.306 47.3632C124.828 47.4108 125.259 47.4864 125.599 47.5891C125.938 47.6918 126.21 47.8648 126.414 48.107C126.617 48.3491 126.719 48.6875 126.719 49.1243C126.719 49.6951 126.505 50.1416 126.079 50.4626C125.652 50.7837 125.015 50.9448 124.169 50.9448C122.785 50.9448 121.894 50.4529 121.496 49.4702L121.493 49.4691Z" fill="#FFC010"/>
<path d="M129.017 50.7352C128.627 50.5968 128.355 50.3947 128.202 50.1287C128.048 49.8628 127.972 49.5201 127.972 49.1006C127.972 48.6412 128.062 48.2779 128.245 48.012C128.428 47.746 128.718 47.5558 129.115 47.4412C129.513 47.3266 130.044 47.2693 130.708 47.2693C131.296 47.2693 131.84 47.3093 132.337 47.3882V46.8293C132.337 46.3136 132.215 45.9136 131.971 45.6282C131.726 45.3428 131.288 45.2001 130.658 45.2001C129.838 45.2001 129.253 45.4855 128.905 46.0563C128.88 46.0963 128.853 46.1298 128.824 46.1568C128.794 46.185 128.763 46.199 128.731 46.199C128.698 46.199 128.656 46.1871 128.606 46.1633L128.308 46.0444C128.2 46.0131 128.146 45.9568 128.146 45.8779C128.146 45.8379 128.159 45.7904 128.184 45.7352C128.647 44.9028 129.481 44.4866 130.683 44.4866C131.603 44.4866 132.248 44.6985 132.617 45.1233C132.986 45.5471 133.171 46.1201 133.171 46.8412V49.9568C133.171 50.1633 133.139 50.3093 133.078 50.3968C133.015 50.4844 132.897 50.5633 132.723 50.6347C132.226 50.8412 131.537 50.9439 130.658 50.9439C129.953 50.9439 129.406 50.8747 129.016 50.7363L129.017 50.7352ZM129.191 49.986C129.44 50.1806 129.908 50.2779 130.597 50.2779C131.285 50.2779 131.761 50.2141 132.101 50.0877C132.201 50.0477 132.265 50.0087 132.294 49.9687C132.323 49.9287 132.337 49.8541 132.337 49.7428V48.0185C131.591 47.9471 131.019 47.9114 130.62 47.9114C129.957 47.9114 129.491 48.0022 129.221 48.1849C128.952 48.3677 128.817 48.6682 128.817 49.0887C128.817 49.5093 128.941 49.7925 129.19 49.986H129.191Z" fill="#FFC010"/>
<path d="M135.633 50.7297C135.6 50.6984 135.584 50.6422 135.584 50.5632V45.4022H134.477C134.393 45.4022 134.335 45.3859 134.303 45.3546C134.269 45.3232 134.253 45.267 134.253 45.1881V44.8789C134.253 44.7913 134.269 44.7341 134.303 44.7059C134.336 44.6778 134.393 44.6649 134.477 44.6649H135.584V44.3676C135.584 43.5189 135.778 42.9124 136.169 42.5481C136.558 42.1838 137.201 41.9935 138.096 41.9773H138.196C138.286 41.9773 138.347 41.9913 138.376 42.0184C138.405 42.0465 138.419 42.1038 138.419 42.1913V42.5005C138.419 42.5881 138.403 42.6476 138.37 42.6789C138.336 42.7103 138.279 42.7265 138.196 42.7265C137.731 42.7265 137.373 42.7741 137.12 42.8692C136.867 42.9643 136.686 43.1286 136.579 43.3632C136.471 43.5968 136.417 43.9319 136.417 44.3676V44.6649H138.22C138.304 44.6649 138.361 44.6811 138.395 44.7124C138.428 44.7438 138.444 44.8 138.444 44.8789V45.1881C138.444 45.267 138.428 45.3232 138.395 45.3546C138.361 45.3859 138.304 45.4022 138.22 45.4022H136.417V50.5632C136.417 50.6422 136.403 50.6984 136.374 50.7297C136.345 50.7611 136.284 50.7773 136.193 50.7773H135.808C135.724 50.7773 135.666 50.7611 135.633 50.7297Z" fill="#FFC010"/>
<path d="M139.961 50.3017C139.514 49.8736 139.29 49.2866 139.29 48.5417V46.9958C139.29 46.2033 139.525 45.5871 139.993 45.1471C140.461 44.7071 141.143 44.4866 142.038 44.4866C142.933 44.4866 143.628 44.7104 144.097 45.159C144.565 45.6066 144.799 46.2033 144.799 46.9482V47.6022C144.799 47.8239 144.675 47.9352 144.426 47.9352H140.122V48.6249C140.122 49.1406 140.282 49.5406 140.601 49.826C140.92 50.1114 141.383 50.2541 141.988 50.2541C142.908 50.2541 143.559 49.9255 143.941 49.2671C144.015 49.1795 144.081 49.1363 144.14 49.1363C144.189 49.1363 144.244 49.1525 144.302 49.1839L144.564 49.3147C144.663 49.3622 144.713 49.4217 144.713 49.4931C144.713 49.5406 144.692 49.5958 144.65 49.6595C144.153 50.5158 143.261 50.9439 141.977 50.9439C141.081 50.9439 140.409 50.7298 139.961 50.3017ZM143.966 47.3168V46.9006C143.966 46.3612 143.801 45.9395 143.475 45.6347C143.147 45.3298 142.668 45.1774 142.038 45.1774C141.408 45.1774 140.942 45.3298 140.614 45.6347C140.287 45.9395 140.124 46.3622 140.124 46.9006V47.3168H143.967H143.966Z" fill="#FFC010"/>
<path d="M78.8371 50.5568C77.9765 50.2552 77.3754 49.8109 77.0338 49.2238C76.6922 48.6368 76.5225 47.8876 76.5225 46.9741C76.5225 45.9633 76.7268 45.1687 77.1365 44.5903C77.5462 44.0119 78.1765 43.6001 79.0284 43.3557C79.8803 43.1114 81.0317 42.9892 82.4803 42.9892C82.9235 42.9892 83.5289 43.0141 84.2954 43.0628V42.4757C84.2954 41.8563 84.1419 41.3957 83.8349 41.0941C83.5279 40.7925 83.0252 40.6422 82.3257 40.6422C81.3873 40.6422 80.6803 40.9438 80.2035 41.5471C80.0673 41.7428 79.9473 41.8811 79.8457 41.9633C79.743 42.0455 79.6154 42.0855 79.4619 42.0855C79.3257 42.0855 79.1376 42.0368 78.8998 41.9384L77.4933 41.4001C77.0327 41.2206 76.8025 40.9763 76.8025 40.666C76.8025 40.5028 76.8619 40.3157 76.9819 40.1038C77.4425 39.2887 78.1279 38.6617 79.0403 38.2206C79.9517 37.7806 81.09 37.5601 82.4544 37.5601C84.4998 37.5601 85.9614 38.012 86.8403 38.9168C87.7181 39.8217 88.1571 41.0887 88.1571 42.719V48.9298C88.1571 49.3536 88.0933 49.6595 87.9657 49.8465C87.8381 50.0347 87.5862 50.2011 87.2111 50.3482C86.1884 50.7882 84.5776 51.0087 82.3776 51.0087C80.8771 51.0087 79.6965 50.8574 78.836 50.5568H78.8371ZM80.7419 47.8552C80.9808 48.0671 81.4327 48.173 82.0976 48.173C82.9333 48.173 83.6068 48.132 84.1181 48.0509C84.2371 48.0184 84.2976 47.9611 84.2976 47.8801V45.8022C83.3257 45.7536 82.61 45.7287 82.1495 45.7287C81.4673 45.7287 81.0025 45.8347 80.756 46.0465C80.5084 46.2584 80.3852 46.5601 80.3852 46.9514C80.3852 47.3428 80.5041 47.6444 80.743 47.8563L80.7419 47.8552Z" fill="#F5F5F5"/>
<path d="M105.497 49.6518C104.457 48.747 103.938 47.4875 103.938 45.8745V42.72C103.938 41.0897 104.457 39.8227 105.497 38.9178C106.537 38.0129 108.046 37.561 110.024 37.561C112.002 37.561 113.536 38.0129 114.576 38.9178C115.616 39.8227 116.136 41.0897 116.136 42.72V45.8745C116.136 47.5048 115.616 48.7686 114.576 49.6648C113.536 50.561 112.019 51.0097 110.024 51.0097C108.029 51.0097 106.537 50.5578 105.497 49.6529V49.6518ZM108.361 47.2551C108.736 47.5729 109.29 47.7318 110.024 47.7318C110.758 47.7318 111.336 47.5729 111.712 47.2551C112.087 46.9372 112.274 46.4854 112.274 45.8983V42.6713C112.274 41.4486 111.523 40.8378 110.023 40.8378C108.522 40.8378 107.798 41.4486 107.798 42.6713V45.8983C107.798 46.4854 107.985 46.9372 108.361 47.2551Z" fill="#F5F5F5"/>
<path d="M102.582 49.5427L100.357 45.2389C99.9142 44.4076 99.4363 43.8205 98.925 43.4789L102.377 39.0043C102.547 38.7762 102.633 38.573 102.633 38.3935C102.633 38.0843 102.326 37.9286 101.712 37.9286H99.9985C99.4526 37.9286 99.0688 37.9697 98.8472 38.0508C98.6255 38.133 98.4039 38.3362 98.1823 38.6616L95.3185 42.5492H94.6028V32.5481L90.7412 34.7773V49.7124C90.7412 50.0713 90.8093 50.3157 90.9455 50.4465C91.0818 50.5773 91.338 50.6421 91.7131 50.6421H93.6309C94.0061 50.6421 94.2612 50.5773 94.3985 50.4465C94.5347 50.3157 94.6028 50.0713 94.6028 49.7124V45.8249H95.498C95.9239 45.8249 96.2655 45.9027 96.5207 46.0573C96.7769 46.2119 96.9812 46.4605 97.1347 46.8032L98.4904 49.8108C98.6601 50.1697 98.8482 50.3978 99.0526 50.4951C99.2569 50.5935 99.632 50.6421 100.178 50.6421H101.942C102.249 50.6421 102.471 50.6097 102.607 50.5449C102.743 50.48 102.811 50.3654 102.811 50.2021C102.811 50.0227 102.735 49.8032 102.581 49.5416L102.582 49.5427Z" fill="#F5F5F5"/>
<path d="M73.353 38.8692C72.4319 37.9978 71.0514 37.5611 69.2103 37.5611C68.4092 37.5611 67.607 37.6432 66.806 37.8054V32.5481L62.9443 34.7773V48.8324C62.9443 49.2238 62.9995 49.5005 63.1108 49.6638C63.2211 49.827 63.4816 50.0065 63.8903 50.2021C64.4189 50.4303 65.1087 50.6216 65.9616 50.7773C66.8135 50.9319 67.7346 51.0097 68.7238 51.0097C70.7184 51.0097 72.2189 50.5578 73.2243 49.653C74.2297 48.7481 74.7335 47.4238 74.7335 45.68V42.6238C74.7335 40.9935 74.273 39.7427 73.353 38.8703V38.8692ZM70.8719 45.6789C70.8719 46.3632 70.6806 46.8735 70.2968 47.2076C69.913 47.5416 69.3206 47.7092 68.5195 47.7092C67.8546 47.7092 67.3087 47.6443 66.8827 47.5135C66.8319 47.4973 66.806 47.4562 66.806 47.3913V41.1319C67.4362 40.9524 68.0676 40.8627 68.6978 40.8627C69.3962 40.8627 69.9335 41.014 70.3087 41.3146C70.6838 41.6162 70.8708 42.0605 70.8708 42.6476V45.68L70.8719 45.6789Z" fill="#F5F5F5"/>
<g clip-path="url(#clip0_11209_8785)">
<path d="M23.9561 37.1213L51.0966 50.6355L37.529 29.2874L23.9561 37.1213Z" fill="url(#paint0_linear_11209_8785)"/>
<path d="M47.5755 32.9394L37.5236 27.1362V13.6216L23.9561 21.4551V37.121L37.5236 29.2875V42.8021L23.9561 50.6356L37.5236 58.4691L51.0912 50.6356V39.0291C51.0912 36.5167 49.7506 34.1956 47.5755 32.9394Z" fill="#F5F5F5"/>
</g>
<defs>
<linearGradient id="paint0_linear_11209_8785" x1="23.9561" y1="39.9614" x2="51.0966" y2="39.9614" gradientUnits="userSpaceOnUse">
<stop stop-color="#FFC010"/>
<stop offset="0.99" stop-color="#B24F18"/>
</linearGradient>
<clipPath id="clip0_11209_8785">
<rect width="72" height="72" fill="white"/>
</clipPath>
</defs>
</svg>
