<svg width="1440" height="531" viewBox="0 0 1440 531" fill="none" xmlns="http://www.w3.org/2000/svg">
<g clip-path="url(#clip0_855_3975)">
<path fill-rule="evenodd" clip-rule="evenodd" d="M416.083 211.678C425.015 196.461 432.044 180.294 436.688 163.544C461.606 73.667 408.757 0.824219 318.649 0.824219C317.922 0.824219 317.183 0.860607 316.457 0.871217L316.47 0.824219H238.426C214.771 0.824219 194.927 15.5774 188.781 37.7564L164.219 127.277H277.805L277.793 127.29C277.984 127.29 278.162 127.277 278.353 127.277C301.187 127.277 314.575 145.737 308.262 168.498C301.938 191.27 278.329 209.718 255.495 209.718C255.304 209.718 255.126 209.706 254.948 209.706V209.718H141.35L164.208 127.277H94.837C71.1695 127.277 51.3374 142.043 45.1911 164.21L0 326.264H303.009H302.997C303.188 326.264 303.379 326.264 303.557 326.264C326.39 326.264 339.779 344.711 333.466 367.472C327.153 390.244 303.534 408.693 280.7 408.693C280.521 408.693 280.342 408.681 280.151 408.681V408.693H125.33C101.674 408.693 81.83 423.458 75.6838 445.637L52.2426 530.193H278.484L278.496 530.144C279.222 530.156 279.925 530.193 280.664 530.193C370.773 530.193 464.013 457.35 488.931 367.472C509.311 293.952 477.628 231.849 416.083 211.678Z" fill="#121212"/>
<path fill-rule="evenodd" clip-rule="evenodd" d="M911 426.608C907.359 447.437 889.376 462.608 868.338 462.608H860.762L860.799 462.425C839.247 461.494 832.002 448.319 836.047 425.044C837.022 419.389 838.917 395 868.743 395H916.518C914.605 405.897 912.712 416.827 911 426.608ZM1007.63 310.206C1017.18 255.474 997.832 225.43 942.867 225.43H836.525C815.745 225.43 797.889 240.234 793.954 260.748L787.04 296.964H913.334C921.959 296.964 927.973 303.369 927.66 311.721C927.642 312.518 926.869 318.191 926.52 319.489C924.755 326.293 918.576 331.317 911.256 331.317H843.789C804.307 331.317 771.226 355.904 764.367 395L755.614 445.441C746.143 500.173 765.433 530.217 820.417 530.217H895.112C962.249 530.217 975.58 494.399 982.973 451.911L995.865 377.815C995.865 377.815 1003.2 335.659 1007.63 310.206Z" fill="#121212"/>
<path fill-rule="evenodd" clip-rule="evenodd" d="M636.073 296.964H636.331H749.968L756.562 260.898C759.906 241.4 746.458 225.43 726.675 225.43H624.232C533.132 225.43 524.875 297.496 534.887 332.149C536.789 338.786 544.251 348.685 547.779 351.895L616.345 430.086C630.2 445.09 629.959 459.847 609.677 459.847H529.142C516.396 459.847 505.517 469.029 503.374 481.606L495.062 530.217H642.353C683.119 530.217 708.425 511.085 724.035 480.525C727.433 473.887 736.317 438.569 715.907 416.343L628.149 320.753C619.245 312.768 624.121 297.13 636.073 296.964Z" fill="#121212"/>
<path fill-rule="evenodd" clip-rule="evenodd" d="M1357.22 330.595C1356.23 336.251 1354.36 360.638 1324.53 360.638H1276.75C1278.65 349.743 1280.56 338.814 1282.27 329.032C1285.89 308.204 1303.89 293.034 1324.91 293.034H1332.51L1332.47 293.216C1354.02 294.165 1361.27 307.34 1357.22 330.595ZM1372.86 225.43H1298.18C1231.02 225.43 1217.69 261.261 1210.29 303.714L1197.4 377.823C1197.4 377.823 1190.05 419.993 1185.63 445.428C1176.09 500.157 1195.43 530.217 1250.4 530.217H1356.75C1377.53 530.217 1395.38 515.378 1399.32 494.884L1406.22 458.685H1279.93C1271.31 458.685 1265.3 452.265 1265.61 443.914C1265.63 443.132 1266.4 437.443 1266.73 436.162C1268.51 429.341 1274.69 424.318 1282.01 424.318H1349.46C1388.97 424.318 1422.05 399.732 1428.93 360.64L1437.64 310.202C1447.13 255.473 1427.84 225.43 1372.86 225.43Z" fill="#121212"/>
<path fill-rule="evenodd" clip-rule="evenodd" d="M1163.37 234.838L1169.92 201.046H1206.68L1219.92 118.449H1219.35H1215.12H1189.11H1188.97C1140.09 118.449 1098.28 153.863 1089.85 202.383L1085.06 234.303C1064.95 234.303 1047.74 248.865 1044.29 268.829L1038.67 300.43H1073.46L1033.55 530.18H1075.45C1096.56 530.18 1114.62 514.881 1118.26 493.93L1152.14 289.558L1163.37 234.838Z" fill="#121212"/>
<mask id="mask0_855_3975" style="mask-type:alpha" maskUnits="userSpaceOnUse" x="964" y="0" width="236" height="413">
<path fill-rule="evenodd" clip-rule="evenodd" d="M1069.56 296.167L1063.01 329.958H1026.26L1013.02 412.555H1013.58H1017.81H1043.83H1043.96C1092.84 412.555 1134.65 377.142 1143.08 328.62L1147.87 296.702C1167.98 296.702 1185.19 282.138 1188.64 262.175L1194.27 230.574H1159.47L1199.38 0.824219H1157.48C1136.38 0.824219 1118.31 16.1231 1114.67 37.0728L1080.79 232.196H1016.57L990.837 262.175L964.102 296.167H1069.56Z" fill="#1CF593"/>
</mask>
<g mask="url(#mask0_855_3975)">
<path d="M1159.32 230.781L1148.62 297.62L1191.4 310.989L1196.75 230.781H1159.32Z" fill="#121212"/>
</g>
</g>
<defs>
<clipPath id="clip0_855_3975">
<rect y="0.824219" width="1440" height="529.368" fill="white"/>
</clipPath>
</defs>
</svg>
