<svg width="134" height="58" viewBox="0 0 134 58" fill="none" xmlns="http://www.w3.org/2000/svg">
<path d="M97.7777 39.7755C97.7647 39.7505 97.7578 39.7185 97.7578 39.6804C97.7578 39.6173 97.8011 39.5723 97.8875 39.5472L98.1461 39.4616L98.2361 39.4426C98.2958 39.4426 98.3459 39.4841 98.3857 39.5662C98.4981 39.8577 98.6806 40.0687 98.9332 40.1985C99.1848 40.3282 99.51 40.3931 99.9079 40.3931C100.378 40.3931 100.73 40.3187 100.962 40.1699C101.194 40.0212 101.311 39.8067 101.311 39.5282C101.311 39.3128 101.253 39.1459 101.137 39.0283C101.021 38.9107 100.864 38.8268 100.669 38.7758C100.473 38.7247 100.206 38.6841 99.8681 38.6521C99.4365 38.614 99.0854 38.5587 98.8138 38.486C98.5414 38.4134 98.3148 38.2767 98.1323 38.0769C97.9498 37.8772 97.859 37.59 97.859 37.2155C97.859 36.7719 98.0268 36.4225 98.3615 36.1691C98.6962 35.9156 99.1822 35.7885 99.8188 35.7885C100.853 35.7885 101.53 36.1345 101.849 36.8255C101.869 36.8635 101.879 36.8981 101.879 36.9301C101.879 36.9933 101.839 37.0408 101.76 37.0728L101.51 37.1775C101.464 37.1965 101.427 37.206 101.401 37.206C101.374 37.206 101.349 37.1948 101.326 37.1732C101.303 37.1507 101.281 37.1239 101.261 37.0919C101.148 36.8506 100.983 36.6689 100.764 36.5444C100.545 36.4207 100.233 36.3593 99.8292 36.3593C99.3976 36.3593 99.0733 36.4311 98.8545 36.5729C98.6356 36.7156 98.5258 36.9232 98.5258 37.1965C98.5258 37.4309 98.5872 37.6091 98.71 37.7293C98.8328 37.8495 98.992 37.9325 99.1874 37.9766C99.3829 38.0207 99.6631 38.0588 100.028 38.0908C100.446 38.1288 100.791 38.1894 101.062 38.2715C101.334 38.3537 101.552 38.4921 101.715 38.6858C101.877 38.8795 101.958 39.1502 101.958 39.4996C101.958 39.9563 101.787 40.3135 101.446 40.5704C101.105 40.8272 100.595 40.9561 99.9191 40.9561C98.8112 40.9561 98.0986 40.5626 97.7803 39.7764L97.7777 39.7755Z" fill="#F5F5F5"/>
<path d="M103.797 40.7883C103.485 40.6776 103.268 40.5159 103.145 40.3031C103.022 40.0903 102.961 39.8162 102.961 39.4806C102.961 39.113 103.034 38.8224 103.18 38.6097C103.326 38.3969 103.558 38.2447 103.876 38.153C104.194 38.0614 104.619 38.0155 105.15 38.0155C105.62 38.0155 106.055 38.0475 106.453 38.1107V37.6635C106.453 37.251 106.356 36.931 106.16 36.7027C105.965 36.4743 105.614 36.3602 105.11 36.3602C104.454 36.3602 103.986 36.5885 103.707 37.0452C103.687 37.0772 103.666 37.104 103.642 37.1256C103.619 37.1481 103.594 37.1593 103.568 37.1593C103.542 37.1593 103.508 37.1498 103.469 37.1308L103.23 37.0356C103.143 37.0106 103.1 36.9656 103.1 36.9024C103.1 36.8704 103.111 36.8324 103.13 36.7883C103.501 36.1223 104.168 35.7894 105.13 35.7894C105.866 35.7894 106.382 35.9589 106.677 36.2988C106.972 36.6378 107.12 37.0962 107.12 37.673V40.1656C107.12 40.3308 107.095 40.4475 107.046 40.5176C106.996 40.5876 106.901 40.6508 106.762 40.7079C106.364 40.873 105.813 40.9552 105.11 40.9552C104.546 40.9552 104.109 40.8999 103.796 40.7892L103.797 40.7883ZM103.937 40.1889C104.135 40.3446 104.51 40.4224 105.061 40.4224C105.612 40.4224 105.992 40.3714 106.265 40.2702C106.344 40.2382 106.395 40.2071 106.419 40.1751C106.442 40.1431 106.453 40.0834 106.453 39.9943V38.6149C105.857 38.5578 105.399 38.5293 105.08 38.5293C104.549 38.5293 104.176 38.6019 103.961 38.7481C103.745 38.8942 103.637 39.1347 103.637 39.4711C103.637 39.8075 103.737 40.0341 103.936 40.1889H103.937Z" fill="#F5F5F5"/>
<path d="M109.091 40.784C109.064 40.7589 109.051 40.7139 109.051 40.6508V36.5219H108.165C108.099 36.5219 108.052 36.509 108.026 36.4839C107.999 36.4588 107.986 36.4138 107.986 36.3507V36.1033C107.986 36.0333 107.999 35.9874 108.026 35.965C108.053 35.9425 108.099 35.9321 108.165 35.9321H109.051V35.6943C109.051 35.0153 109.207 34.5302 109.519 34.2387C109.83 33.9472 110.345 33.795 111.061 33.782H111.14C111.213 33.782 111.262 33.7933 111.285 33.8149C111.308 33.8374 111.32 33.8832 111.32 33.9533V34.2006C111.32 34.2707 111.307 34.3183 111.28 34.3433C111.253 34.3684 111.207 34.3814 111.14 34.3814C110.769 34.3814 110.482 34.4194 110.28 34.4956C110.078 34.5717 109.933 34.7031 109.848 34.8908C109.761 35.0776 109.718 35.3457 109.718 35.6943V35.9321H111.16C111.227 35.9321 111.273 35.9451 111.3 35.9702C111.326 35.9952 111.339 36.0402 111.339 36.1033V36.3507C111.339 36.4138 111.326 36.4588 111.3 36.4839C111.273 36.509 111.227 36.5219 111.16 36.5219H109.718V40.6508C109.718 40.7139 109.707 40.7589 109.683 40.784C109.66 40.8091 109.611 40.822 109.539 40.822H109.23C109.163 40.822 109.117 40.8091 109.091 40.784Z" fill="#F5F5F5"/>
<path d="M112.553 40.4415C112.195 40.099 112.016 39.6294 112.016 39.0335V37.7967C112.016 37.1628 112.203 36.6698 112.578 36.3178C112.952 35.9658 113.498 35.7894 114.214 35.7894C114.93 35.7894 115.486 35.9684 115.861 36.3273C116.235 36.6854 116.423 37.1628 116.423 37.7587V38.2819C116.423 38.4592 116.324 38.5483 116.125 38.5483H112.682V39.1001C112.682 39.5126 112.81 39.8326 113.065 40.0609C113.32 40.2893 113.69 40.4034 114.174 40.4034C114.91 40.4034 115.431 40.1405 115.736 39.6138C115.796 39.5437 115.849 39.5092 115.895 39.5092C115.935 39.5092 115.978 39.5221 116.025 39.5472L116.234 39.6519C116.314 39.6899 116.354 39.7375 116.354 39.7946C116.354 39.8326 116.337 39.8767 116.304 39.9277C115.906 40.6127 115.192 40.9552 114.165 40.9552C113.449 40.9552 112.911 40.784 112.553 40.4415ZM115.756 38.0536V37.7206C115.756 37.289 115.625 36.9517 115.364 36.7079C115.101 36.464 114.718 36.342 114.214 36.342C113.71 36.342 113.337 36.464 113.075 36.7079C112.813 36.9517 112.682 37.2899 112.682 37.7206V38.0536H115.757H115.756Z" fill="#F5F5F5"/>
<path d="M63.6544 40.6456C62.966 40.4043 62.4851 40.0488 62.2118 39.5792C61.9385 39.1096 61.8027 38.5103 61.8027 37.7794C61.8027 36.9708 61.9662 36.3351 62.294 35.8724C62.6218 35.4097 63.126 35.0802 63.8075 34.8847C64.489 34.6893 65.4101 34.5916 66.569 34.5916C66.9236 34.5916 67.4079 34.6114 68.0211 34.6504V34.1807C68.0211 33.6852 67.8983 33.3167 67.6527 33.0754C67.4071 32.8341 67.0049 32.7139 66.4453 32.7139C65.6946 32.7139 65.129 32.9552 64.7476 33.4378C64.6386 33.5944 64.5426 33.7051 64.4613 33.7708C64.3792 33.8365 64.2771 33.8685 64.1543 33.8685C64.0453 33.8685 63.8948 33.8296 63.7046 33.7509L62.5794 33.3202C62.211 33.1766 62.0267 32.9812 62.0267 32.733C62.0267 32.6024 62.0743 32.4527 62.1703 32.2832C62.5387 31.6311 63.0871 31.1295 63.817 30.7766C64.5461 30.4246 65.4568 30.2482 66.5482 30.2482C68.1846 30.2482 69.3539 30.6097 70.057 31.3336C70.7593 32.0575 71.1104 33.0711 71.1104 34.3753V39.344C71.1104 39.683 71.0594 39.9278 70.9573 40.0774C70.8553 40.2279 70.6538 40.3611 70.3537 40.4787C69.5355 40.8307 68.2468 41.0071 66.4868 41.0071C65.2864 41.0071 64.342 40.886 63.6535 40.6456H63.6544ZM65.1783 38.4843C65.3694 38.6538 65.7309 38.7386 66.2628 38.7386C66.9314 38.7386 67.4702 38.7057 67.8793 38.6408C67.9744 38.6149 68.0228 38.5691 68.0228 38.5042V36.8419C67.2453 36.803 66.6728 36.7831 66.3044 36.7831C65.7586 36.7831 65.3867 36.8679 65.1895 37.0374C64.9915 37.2069 64.8929 37.4482 64.8929 37.7613C64.8929 38.0744 64.988 38.3157 65.1792 38.4852L65.1783 38.4843Z" fill="#1E1F22"/>
<path d="M84.9824 39.9217C84.1504 39.1978 83.7344 38.1902 83.7344 36.8999V34.3762C83.7344 33.072 84.1504 32.0584 84.9824 31.3345C85.8144 30.6106 87.0209 30.2491 88.6036 30.2491C90.1863 30.2491 91.4135 30.6106 92.2455 31.3345C93.0775 32.0584 93.4935 33.072 93.4935 34.3762V36.8999C93.4935 38.2041 93.0775 39.2151 92.2455 39.9321C91.4135 40.6491 90.1992 41.008 88.6036 41.008C87.0079 41.008 85.8144 40.6465 84.9824 39.9226V39.9217ZM87.2734 38.0043C87.5735 38.2586 88.0163 38.3857 88.6036 38.3857C89.1908 38.3857 89.6535 38.2586 89.9536 38.0043C90.2537 37.75 90.4033 37.3885 90.4033 36.9189V34.3373C90.4033 33.3591 89.8031 32.8705 88.6027 32.8705C87.4023 32.8705 86.8228 33.3591 86.8228 34.3373V36.9189C86.8228 37.3885 86.9724 37.75 87.2734 38.0043Z" fill="#1E1F22"/>
<path d="M82.6506 39.8344L80.8707 36.3913C80.5161 35.7262 80.1338 35.2566 79.7248 34.9833L82.4863 31.4037C82.6221 31.2212 82.6912 31.0586 82.6912 30.915C82.6912 30.6677 82.4456 30.5431 81.9544 30.5431H80.5836C80.1468 30.5431 79.8398 30.576 79.6625 30.6408C79.4852 30.7066 79.3079 30.8692 79.1306 31.1295L76.8396 34.2395H76.267V26.2387L73.1777 28.022V39.9701C73.1777 40.2573 73.2322 40.4527 73.3412 40.5574C73.4502 40.662 73.6551 40.7139 73.9552 40.7139H75.4895C75.7896 40.7139 75.9937 40.662 76.1036 40.5574C76.2125 40.4527 76.267 40.2573 76.267 39.9701V36.8601H76.9831C77.3239 36.8601 77.5972 36.9224 77.8013 37.046C78.0063 37.1697 78.1697 37.3686 78.2925 37.6428L79.3771 40.0488C79.5129 40.336 79.6634 40.5185 79.8268 40.5963C79.9903 40.675 80.2904 40.7139 80.7271 40.7139H82.1386C82.3842 40.7139 82.5615 40.688 82.6705 40.6361C82.7795 40.5842 82.834 40.4925 82.834 40.3619C82.834 40.2184 82.7725 40.0428 82.6497 39.8335L82.6506 39.8344Z" fill="#1E1F22"/>
<path d="M59.2664 31.2955C58.5295 30.5985 57.4251 30.2491 55.9522 30.2491C55.3113 30.2491 54.6696 30.3148 54.0288 30.4445V26.2387L50.9395 28.022V39.2661C50.9395 39.5792 50.9836 39.8006 51.0726 39.9312C51.1609 40.0618 51.3693 40.2054 51.6962 40.3619C52.1191 40.5444 52.6709 40.6975 53.3533 40.822C54.0348 40.9457 54.7717 41.008 55.563 41.008C57.1587 41.008 58.3591 40.6465 59.1635 39.9226C59.9678 39.1987 60.3708 38.1392 60.3708 36.7442V34.2992C60.3708 32.995 60.0024 31.9944 59.2664 31.2964V31.2955ZM57.2815 36.7433C57.2815 37.2908 57.1284 37.699 56.8214 37.9662C56.5144 38.2335 56.0404 38.3675 55.3996 38.3675C54.8677 38.3675 54.4309 38.3157 54.0902 38.211C54.0495 38.198 54.0288 38.1652 54.0288 38.1133V33.1057C54.533 32.9621 55.038 32.8904 55.5423 32.8904C56.101 32.8904 56.5308 33.0114 56.8309 33.2519C57.131 33.4932 57.2806 33.8486 57.2806 34.3182V36.7442L57.2815 36.7433Z" fill="#1E1F22"/>
<g clip-path="url(#clip0_11295_123780)">
<path d="M19.748 29.8972L41.4605 40.7085L30.6064 23.63L19.748 29.8972Z" fill="#F5F5F5"/>
<path d="M38.6436 26.5518L30.6021 21.9092V11.0975L19.748 17.3643V29.8971L30.6021 23.6303V34.4419L19.748 40.7087L30.6021 46.9756L41.4562 40.7087V31.4236C41.4562 29.4136 40.3837 27.5567 38.6436 26.5518Z" fill="#1E1F22"/>
</g>
<defs>
<clipPath id="clip0_11295_123780">
<rect width="57.6" height="57.6" fill="white" transform="translate(0.583984 0.200195)"/>
</clipPath>
</defs>
</svg>
