<svg xmlns="http://www.w3.org/2000/svg" width="94" height="32" viewBox="0 0 94 32" fill="none">
    <path d="M1.36145 8.63636V2.63636H2.00918V3.32955H2.08872C2.13797 3.25379 2.20615 3.1572 2.29327 3.03977C2.38228 2.92045 2.50918 2.81439 2.67395 2.72159C2.84062 2.62689 3.066 2.57955 3.35009 2.57955C3.71751 2.57955 4.04137 2.6714 4.32168 2.85511C4.60198 3.03883 4.82073 3.29924 4.97793 3.63636C5.13512 3.97348 5.21372 4.37121 5.21372 4.82955C5.21372 5.29167 5.13512 5.69223 4.97793 6.03125C4.82073 6.36837 4.60293 6.62973 4.32452 6.81534C4.04611 6.99905 3.72509 7.09091 3.36145 7.09091C3.08115 7.09091 2.85672 7.04451 2.68816 6.9517C2.51959 6.85701 2.38986 6.75 2.29895 6.63068C2.20804 6.50947 2.13797 6.40909 2.08872 6.32955H2.03191V8.63636H1.36145ZM2.02054 4.81818C2.02054 5.14773 2.06884 5.43845 2.16543 5.69034C2.26202 5.94034 2.40312 6.13636 2.58872 6.27841C2.77433 6.41856 3.0016 6.48864 3.27054 6.48864C3.55084 6.48864 3.78475 6.41477 3.97225 6.26705C4.16164 6.11742 4.30369 5.91667 4.39838 5.66477C4.49497 5.41098 4.54327 5.12879 4.54327 4.81818C4.54327 4.51136 4.49592 4.23485 4.40122 3.98864C4.30842 3.74053 4.16732 3.54451 3.97793 3.40057C3.79043 3.25473 3.55463 3.18182 3.27054 3.18182C2.99781 3.18182 2.76865 3.25095 2.58304 3.3892C2.39744 3.52557 2.25728 3.71686 2.16259 3.96307C2.06789 4.20739 2.02054 4.49242 2.02054 4.81818ZM8.64918 7.09091C8.25524 7.09091 7.90959 6.99716 7.61225 6.80966C7.31679 6.62216 7.08573 6.35985 6.91906 6.02273C6.75429 5.68561 6.6719 5.29167 6.6719 4.84091C6.6719 4.38636 6.75429 3.98958 6.91906 3.65057C7.08573 3.31155 7.31679 3.0483 7.61225 2.8608C7.90959 2.6733 8.25524 2.57955 8.64918 2.57955C9.04312 2.57955 9.38781 2.6733 9.68327 2.8608C9.98062 3.0483 10.2117 3.31155 10.3765 3.65057C10.5431 3.98958 10.6265 4.38636 10.6265 4.84091C10.6265 5.29167 10.5431 5.68561 10.3765 6.02273C10.2117 6.35985 9.98062 6.62216 9.68327 6.80966C9.38781 6.99716 9.04312 7.09091 8.64918 7.09091ZM8.64918 6.48864C8.94842 6.48864 9.19463 6.41193 9.38781 6.25852C9.581 6.10511 9.72399 5.90341 9.81679 5.65341C9.90959 5.40341 9.956 5.13258 9.956 4.84091C9.956 4.54924 9.90959 4.27746 9.81679 4.02557C9.72399 3.77367 9.581 3.57008 9.38781 3.41477C9.19463 3.25947 8.94842 3.18182 8.64918 3.18182C8.34994 3.18182 8.10372 3.25947 7.91054 3.41477C7.71736 3.57008 7.57437 3.77367 7.48156 4.02557C7.38876 4.27746 7.34236 4.54924 7.34236 4.84091C7.34236 5.13258 7.38876 5.40341 7.48156 5.65341C7.57437 5.90341 7.71736 6.10511 7.91054 6.25852C8.10372 6.41193 8.34994 6.48864 8.64918 6.48864ZM13.1301 7L11.8005 2.63636H12.5051L13.4483 5.97727H13.4937L14.4255 2.63636H15.1415L16.0619 5.96591H16.1074L17.0505 2.63636H17.7551L16.4255 7H15.7665L14.8119 3.64773H14.7437L13.7892 7H13.1301ZM20.9626 7.09091C20.5421 7.09091 20.1794 6.99811 19.8745 6.8125C19.5715 6.625 19.3376 6.36364 19.1728 6.02841C19.0099 5.69129 18.9285 5.29924 18.9285 4.85227C18.9285 4.4053 19.0099 4.01136 19.1728 3.67045C19.3376 3.32765 19.5667 3.06061 19.8603 2.86932C20.1557 2.67614 20.5004 2.57955 20.8944 2.57955C21.1216 2.57955 21.3461 2.61742 21.5677 2.69318C21.7893 2.76894 21.991 2.89205 22.1728 3.0625C22.3546 3.23106 22.4995 3.45455 22.6074 3.73295C22.7154 4.01136 22.7694 4.35417 22.7694 4.76136V5.04545H19.4057V4.46591H22.0876C22.0876 4.2197 22.0383 4 21.9398 3.80682C21.8432 3.61364 21.705 3.46117 21.5251 3.34943C21.347 3.23769 21.1368 3.18182 20.8944 3.18182C20.6273 3.18182 20.3963 3.24811 20.2012 3.38068C20.008 3.51136 19.8593 3.68182 19.7552 3.89205C19.651 4.10227 19.5989 4.32765 19.5989 4.56818V4.95455C19.5989 5.28409 19.6557 5.56345 19.7694 5.79261C19.8849 6.01989 20.0449 6.19318 20.2495 6.3125C20.454 6.42992 20.6917 6.48864 20.9626 6.48864C21.1387 6.48864 21.2978 6.46402 21.4398 6.41477C21.5838 6.36364 21.7078 6.28788 21.812 6.1875C21.9162 6.08523 21.9966 5.95833 22.0535 5.80682L22.7012 5.98864C22.633 6.20833 22.5184 6.40152 22.3574 6.56818C22.1965 6.73295 21.9976 6.86174 21.7609 6.95455C21.5241 7.04545 21.258 7.09091 20.9626 7.09091ZM24.4293 7V2.63636H25.077V3.29545H25.1224C25.202 3.07955 25.3459 2.90436 25.5543 2.76989C25.7626 2.63542 25.9974 2.56818 26.2588 2.56818C26.3081 2.56818 26.3696 2.56913 26.4435 2.57102C26.5173 2.57292 26.5732 2.57576 26.6111 2.57955V3.26136C26.5884 3.25568 26.5363 3.24716 26.4548 3.2358C26.3753 3.22254 26.291 3.21591 26.202 3.21591C25.9899 3.21591 25.8005 3.26042 25.6338 3.34943C25.469 3.43655 25.3384 3.55777 25.2418 3.71307C25.1471 3.86648 25.0997 4.04167 25.0997 4.23864V7H24.4293ZM29.7426 7.09091C29.3221 7.09091 28.9594 6.99811 28.6545 6.8125C28.3515 6.625 28.1176 6.36364 27.9528 6.02841C27.7899 5.69129 27.7085 5.29924 27.7085 4.85227C27.7085 4.4053 27.7899 4.01136 27.9528 3.67045C28.1176 3.32765 28.3467 3.06061 28.6403 2.86932C28.9357 2.67614 29.2804 2.57955 29.6744 2.57955C29.9017 2.57955 30.1261 2.61742 30.3477 2.69318C30.5693 2.76894 30.771 2.89205 30.9528 3.0625C31.1346 3.23106 31.2795 3.45455 31.3874 3.73295C31.4954 4.01136 31.5494 4.35417 31.5494 4.76136V5.04545H28.1857V4.46591H30.8676C30.8676 4.2197 30.8183 4 30.7198 3.80682C30.6232 3.61364 30.485 3.46117 30.3051 3.34943C30.127 3.23769 29.9168 3.18182 29.6744 3.18182C29.4073 3.18182 29.1763 3.24811 28.9812 3.38068C28.788 3.51136 28.6393 3.68182 28.5352 3.89205C28.431 4.10227 28.3789 4.32765 28.3789 4.56818V4.95455C28.3789 5.28409 28.4357 5.56345 28.5494 5.79261C28.6649 6.01989 28.8249 6.19318 29.0295 6.3125C29.234 6.42992 29.4717 6.48864 29.7426 6.48864C29.9187 6.48864 30.0778 6.46402 30.2198 6.41477C30.3638 6.36364 30.4878 6.28788 30.592 6.1875C30.6962 6.08523 30.7767 5.95833 30.8335 5.80682L31.4812 5.98864C31.413 6.20833 31.2984 6.40152 31.1374 6.56818C30.9765 6.73295 30.7776 6.86174 30.5409 6.95455C30.3041 7.04545 30.038 7.09091 29.7426 7.09091ZM34.857 7.09091C34.4934 7.09091 34.1723 6.99905 33.8939 6.81534C33.6155 6.62973 33.3977 6.36837 33.2405 6.03125C33.0833 5.69223 33.0047 5.29167 33.0047 4.82955C33.0047 4.37121 33.0833 3.97348 33.2405 3.63636C33.3977 3.29924 33.6165 3.03883 33.8968 2.85511C34.1771 2.6714 34.5009 2.57955 34.8684 2.57955C35.1524 2.57955 35.3769 2.62689 35.5416 2.72159C35.7083 2.81439 35.8352 2.92045 35.9223 3.03977C36.0113 3.1572 36.0805 3.25379 36.1297 3.32955H36.1865V1.18182H36.857V7H36.2093V6.32955H36.1297C36.0805 6.40909 36.0104 6.50947 35.9195 6.63068C35.8286 6.75 35.6988 6.85701 35.5303 6.9517C35.3617 7.04451 35.1373 7.09091 34.857 7.09091ZM34.9479 6.48864C35.2168 6.48864 35.4441 6.41856 35.6297 6.27841C35.8153 6.13636 35.9564 5.94034 36.053 5.69034C36.1496 5.43845 36.1979 5.14773 36.1979 4.81818C36.1979 4.49242 36.1506 4.20739 36.0559 3.96307C35.9612 3.71686 35.821 3.52557 35.6354 3.3892C35.4498 3.25095 35.2206 3.18182 34.9479 3.18182C34.6638 3.18182 34.4271 3.25473 34.2377 3.40057C34.0502 3.54451 33.9091 3.74053 33.8144 3.98864C33.7216 4.23485 33.6752 4.51136 33.6752 4.81818C33.6752 5.12879 33.7225 5.41098 33.8172 5.66477C33.9138 5.91667 34.0559 6.11742 34.2434 6.26705C34.4327 6.41477 34.6676 6.48864 34.9479 6.48864ZM41.7989 7V1.18182H42.4694V3.32955H42.5262C42.5754 3.25379 42.6436 3.1572 42.7307 3.03977C42.8198 2.92045 42.9466 2.81439 43.1114 2.72159C43.2781 2.62689 43.5035 2.57955 43.7876 2.57955C44.155 2.57955 44.4788 2.6714 44.7591 2.85511C45.0395 3.03883 45.2582 3.29924 45.4154 3.63636C45.5726 3.97348 45.6512 4.37121 45.6512 4.82955C45.6512 5.29167 45.5726 5.69223 45.4154 6.03125C45.2582 6.36837 45.0404 6.62973 44.762 6.81534C44.4836 6.99905 44.1626 7.09091 43.7989 7.09091C43.5186 7.09091 43.2942 7.04451 43.1256 6.9517C42.9571 6.85701 42.8273 6.75 42.7364 6.63068C42.6455 6.50947 42.5754 6.40909 42.5262 6.32955H42.4466V7H41.7989ZM42.458 4.81818C42.458 5.14773 42.5063 5.43845 42.6029 5.69034C42.6995 5.94034 42.8406 6.13636 43.0262 6.27841C43.2118 6.41856 43.4391 6.48864 43.708 6.48864C43.9883 6.48864 44.2222 6.41477 44.4097 6.26705C44.5991 6.11742 44.7412 5.91667 44.8359 5.66477C44.9324 5.41098 44.9807 5.12879 44.9807 4.81818C44.9807 4.51136 44.9334 4.23485 44.8387 3.98864C44.7459 3.74053 44.6048 3.54451 44.4154 3.40057C44.2279 3.25473 43.9921 3.18182 43.708 3.18182C43.4353 3.18182 43.2061 3.25095 43.0205 3.3892C42.8349 3.52557 42.6948 3.71686 42.6001 3.96307C42.5054 4.20739 42.458 4.49242 42.458 4.81818ZM47.5923 8.63636C47.4787 8.63636 47.3774 8.62689 47.2884 8.60795C47.1993 8.59091 47.1378 8.57386 47.1037 8.55682L47.2741 7.96591C47.437 8.00758 47.581 8.02273 47.706 8.01136C47.831 8 47.9418 7.94413 48.0384 7.84375C48.1368 7.74527 48.2268 7.58523 48.3082 7.36364L48.4332 7.02273L46.8196 2.63636H47.5469L48.7514 6.11364H48.7969L50.0014 2.63636H50.7287L48.8764 7.63636C48.7931 7.86174 48.6899 8.0483 48.5668 8.19602C48.4437 8.34564 48.3007 8.45644 48.1378 8.52841C47.9768 8.60038 47.795 8.63636 47.5923 8.63636Z" fill="#5E5955"/>
    <path d="M34.018 11C36.6578 11.0038 38.3486 13.7423 37.2048 16.1273C37.0007 16.5534 36.5528 17.0905 35.8611 17.7386C35.511 18.0682 34.9103 18.6646 34.059 19.5279C34.0513 19.5348 34.0346 19.5382 34.009 19.5382C33.9834 19.5382 33.9672 19.5348 33.9603 19.5279C33.1107 18.6629 32.5108 18.0652 32.1607 17.7347C31.4708 17.0849 31.0242 16.547 30.821 16.1209C29.6823 13.7333 31.3794 10.9974 34.018 11Z" fill="#5E5955"/>
    <path d="M30.3366 30.9975H24.3486C24.2354 30.9975 24.1261 30.956 24.0412 30.8809L14.5449 22.4427C14.5379 22.4365 14.533 22.4284 14.5307 22.4194C14.5284 22.4104 14.5289 22.401 14.5321 22.3922C14.5353 22.3835 14.541 22.376 14.5485 22.3706C14.5561 22.3652 14.5651 22.3622 14.5744 22.362C18.3213 22.3671 22.1276 22.3692 25.9932 22.3684C26.3313 22.3684 26.7028 22.3773 26.9052 22.1353C27.3368 21.6178 26.9756 20.93 26.3096 20.93C25.2635 20.93 21.3198 20.9291 14.4783 20.9274C14.4644 20.9274 14.451 20.9219 14.4412 20.912C14.4313 20.9022 14.4258 20.8888 14.4258 20.8749V17.3999C14.4258 17.3919 14.4274 17.3839 14.4305 17.3764C14.4336 17.3689 14.4381 17.3622 14.4438 17.3565C14.4495 17.3507 14.4563 17.3462 14.4637 17.3431C14.4712 17.34 14.4792 17.3384 14.4873 17.3384C16.6493 17.3265 20.556 17.3273 26.2071 17.341C28.0831 17.3461 29.4383 18.1706 30.2725 19.8143C30.4792 20.2217 30.6085 20.7161 30.6606 21.2976C30.8835 23.7427 28.9558 25.8792 26.5055 25.9509C26.2007 25.9595 25.6841 25.9637 24.9557 25.9637C24.9449 25.9638 24.9344 25.9672 24.9255 25.9733C24.9166 25.9795 24.9098 25.9882 24.9059 25.9983C24.902 26.0083 24.9013 26.0194 24.9038 26.0299C24.9063 26.0404 24.9119 26.0499 24.9198 26.0572L30.3724 30.9027C30.3809 30.9099 30.3869 30.9195 30.3897 30.9303C30.3925 30.941 30.3918 30.9524 30.3879 30.9627C30.384 30.9731 30.3769 30.982 30.3677 30.9883C30.3586 30.9945 30.3477 30.9977 30.3366 30.9975Z" fill="#5E5955"/>
    <path d="M45.1234 22.3678H50.9206C50.9406 22.3678 50.9598 22.3757 50.974 22.3899C50.9882 22.4041 50.9961 22.4233 50.9961 22.4433V30.9213C50.9961 30.942 50.9879 30.9619 50.9732 30.9766C50.9586 30.9912 50.9387 30.9994 50.918 30.9994C48.7081 31.002 46.3026 30.9973 43.7017 30.9854C42.8674 30.9819 42.0267 30.7919 41.1796 30.4154C37.1847 28.6388 35.7821 23.7101 38.4104 20.116C39.7015 18.3497 41.7445 17.3468 43.9591 17.3366C45.6413 17.3289 47.9622 17.328 50.9218 17.334C50.9426 17.334 50.9624 17.3422 50.9771 17.3569C50.9917 17.3715 51 17.3914 51 17.4121V20.8666C51 20.8839 50.9931 20.9005 50.9808 20.9128C50.9686 20.925 50.952 20.9319 50.9346 20.9319C49.6043 20.9319 47.2991 20.9302 44.0193 20.9268C42.212 20.9242 40.6378 22.2807 40.6724 24.1802C40.707 25.9951 42.0865 27.381 43.9258 27.3913C45.7019 27.4024 46.8235 27.4066 47.2906 27.4041C47.3191 27.4041 47.3465 27.3928 47.3667 27.3726C47.3869 27.3524 47.3982 27.325 47.3982 27.2965V26.0284C47.3982 26.0115 47.3913 25.9952 47.3791 25.9832C47.3668 25.9712 47.3502 25.9644 47.3329 25.9644H45.8855C45.8684 25.9645 45.8518 25.9587 45.8385 25.9479C45.8252 25.9372 45.816 25.9222 45.8125 25.9055L45.0376 22.4766C45.0345 22.4637 45.0344 22.4502 45.0372 22.4371C45.0401 22.4241 45.0459 22.4119 45.0541 22.4014C45.0624 22.391 45.0729 22.3825 45.0849 22.3767C45.0969 22.3708 45.1101 22.3678 45.1234 22.3678Z" fill="#5E5955"/>
    <path d="M31.4062 30.9495V18.8916C31.4063 18.8816 31.4093 18.8719 31.4149 18.8637C31.4204 18.8555 31.4283 18.8491 31.4375 18.8454C31.4467 18.8417 31.4569 18.8408 31.4666 18.8429C31.4763 18.8449 31.4852 18.8498 31.4921 18.857L33.9795 21.3444C33.9841 21.3492 33.9897 21.353 33.9959 21.3556C34.002 21.3582 34.0087 21.3596 34.0154 21.3596C34.022 21.3596 34.0287 21.3582 34.0348 21.3556C34.041 21.353 34.0466 21.3492 34.0512 21.3444L36.3516 19.044C36.3585 19.0369 36.3674 19.0319 36.3771 19.0299C36.3869 19.0278 36.397 19.0287 36.4062 19.0324C36.4154 19.0361 36.4233 19.0425 36.4288 19.0507C36.4344 19.0589 36.4374 19.0686 36.4374 19.0786V30.9495C36.4374 30.9628 36.4322 30.9755 36.4228 30.9849C36.4135 30.9942 36.4007 30.9995 36.3875 30.9995H31.4562C31.4496 30.9995 31.4431 30.9982 31.4371 30.9957C31.431 30.9932 31.4255 30.9895 31.4209 30.9849C31.4162 30.9802 31.4126 30.9747 31.4101 30.9687C31.4075 30.9626 31.4062 30.9561 31.4062 30.9495Z" fill="#5E5955"/>
    <path d="M61 32C61 31.2411 61 30.7352 61 30.166C61 21.0593 61 11.9526 61 2.84585C61 0.379447 61.3794 0 63.8458 0C73.0791 0 82.249 0 91.4822 0C91.9881 0 92.5573 0 93.1897 0C93.1897 0.632411 93.253 1.0751 93.253 1.58103C93.253 9.67589 93.253 17.7075 93.253 25.8024C93.253 29.0909 90.2806 32 87.0553 32C79.0237 32 70.9921 32 63.0237 32C62.4545 32 61.8221 32 61 32ZM82.0593 4.04743C81.6798 3.92095 81.5534 3.79447 81.4269 3.79447C76.4308 3.79447 71.4348 3.79447 66.4387 3.79447C65.1107 3.79447 64.6047 4.6166 65.1739 5.88142C66.3755 8.47431 67.5771 11.0672 68.8419 13.6601C69.664 15.3676 70.5494 15.5573 71.8775 14.2292C74.5968 11.5731 77.253 8.85375 79.9723 6.19763C80.668 5.50198 81.3004 4.80632 82.0593 4.04743ZM64.8577 27.9526C68.6522 24.1581 72.3202 20.5534 75.9881 16.9486C75.9881 16.9486 75.9249 16.8221 75.8617 16.8221C72.5731 16.8221 69.3478 16.6957 66.0593 16.8221C65.6166 16.8221 64.9209 17.581 64.8577 18.0237C64.7312 21.3123 64.8577 24.6008 64.8577 28.0158V27.9526ZM88.7628 3.85771C85.5375 3.41502 84.8419 3.60474 83.0079 5.43874C80.2253 8.22134 77.3794 11.0672 74.5968 13.8498C74.2806 14.166 74.0909 14.4822 73.8379 14.7984L74.0277 15.2411C75.4822 15.0514 77.3794 15.4308 78.2648 14.6719C81.9328 11.2569 85.2846 7.52569 88.7628 3.92095V3.85771Z" fill="#00E55C"/>
</svg>