<svg xmlns="http://www.w3.org/2000/svg" xmlns:xlink="http://www.w3.org/1999/xlink" version="1.1" width="256" height="256" viewBox="0 0 256 256" xml:space="preserve">
<g style="stroke: none; stroke-width: 0; stroke-dasharray: none; stroke-linecap: butt; stroke-linejoin: miter; stroke-miterlimit: 10; fill: none; fill-rule: nonzero; opacity: 1;" transform="translate(1.4065934065934016 1.4065934065934016) scale(2.81 2.81)">
	<path d="M 68.881 6.865 L 68.881 6.865 C 61.958 2.521 53.776 0 45 0 c -8.776 0 -16.958 2.521 -23.88 6.865 C 8.438 14.824 0 28.923 0 45 c 0 16.077 8.438 30.176 21.12 38.135 C 28.042 87.479 36.224 90 45 90 c 8.776 0 16.958 -2.521 23.881 -6.865 C 81.563 75.176 90 61.077 90 45 S 81.563 14.824 68.881 6.865 z" style="stroke: none; stroke-width: 1; stroke-dasharray: none; stroke-linecap: butt; stroke-linejoin: miter; stroke-miterlimit: 10; fill: rgb(0,0,153); fill-rule: nonzero; opacity: 1;" transform=" matrix(1 0 0 1 0 0) " stroke-linecap="round"/>
	<polygon points="80,43.74 76.17,43.71 75.07,40.14 73.85,43.78 70.12,43.72 73.2,46 71.99,49.53 75.11,47.3 78.1,49.55 76.94,45.89 " style="stroke: none; stroke-width: 1; stroke-dasharray: none; stroke-linecap: butt; stroke-linejoin: miter; stroke-miterlimit: 10; fill: rgb(255,204,0); fill-rule: nonzero; opacity: 1;" transform="  matrix(1 0 0 1 0 0) "/>
	<polygon points="67.94,34.42 71.06,32.2 74.05,34.44 72.89,30.78 75.95,28.64 72.12,28.6 71.02,25.04 69.81,28.67 66.07,28.61 69.15,30.89 " style="stroke: none; stroke-width: 1; stroke-dasharray: none; stroke-linecap: butt; stroke-linejoin: miter; stroke-miterlimit: 10; fill: rgb(255,204,0); fill-rule: nonzero; opacity: 1;" transform="  matrix(1 0 0 1 0 0) "/>
	<polygon points="60.27,14.13 59.06,17.77 55.33,17.71 58.4,19.98 57.2,23.52 60.31,21.29 63.3,23.53 62.15,19.88 65.2,17.73 61.37,17.7 " style="stroke: none; stroke-width: 1; stroke-dasharray: none; stroke-linecap: butt; stroke-linejoin: miter; stroke-miterlimit: 10; fill: rgb(255,204,0); fill-rule: nonzero; opacity: 1;" transform="  matrix(1 0 0 1 0 0) "/>
	<polygon points="45.16,9.93 43.95,13.56 40.22,13.5 43.3,15.78 42.09,19.31 45.2,17.09 48.19,19.33 47.04,15.68 50.09,13.53 46.27,13.49 " style="stroke: none; stroke-width: 1; stroke-dasharray: none; stroke-linecap: butt; stroke-linejoin: miter; stroke-miterlimit: 10; fill: rgb(255,204,0); fill-rule: nonzero; opacity: 1;" transform="  matrix(1 0 0 1 0 0) "/>
	<polygon points="30.21,13.98 29,17.61 25.26,17.55 28.34,19.83 27.13,23.36 30.25,21.14 33.24,23.38 32.09,19.73 35.14,17.58 31.31,17.54 " style="stroke: none; stroke-width: 1; stroke-dasharray: none; stroke-linecap: butt; stroke-linejoin: miter; stroke-miterlimit: 10; fill: rgb(255,204,0); fill-rule: nonzero; opacity: 1;" transform="  matrix(1 0 0 1 0 0) "/>
	<polygon points="19,24.88 17.78,28.51 14.05,28.45 17.13,30.73 15.92,34.27 19.04,32.04 22.03,34.28 20.87,30.63 23.93,28.48 20.1,28.45 " style="stroke: none; stroke-width: 1; stroke-dasharray: none; stroke-linecap: butt; stroke-linejoin: miter; stroke-miterlimit: 10; fill: rgb(255,204,0); fill-rule: nonzero; opacity: 1;" transform="  matrix(1 0 0 1 0 0) "/>
	<polygon points="14.99,47.15 17.98,49.39 16.82,45.74 19.88,43.59 16.05,43.56 14.95,39.99 13.73,43.62 10,43.56 13.08,45.84 11.87,49.38 " style="stroke: none; stroke-width: 1; stroke-dasharray: none; stroke-linecap: butt; stroke-linejoin: miter; stroke-miterlimit: 10; fill: rgb(255,204,0); fill-rule: nonzero; opacity: 1;" transform="  matrix(1 0 0 1 0 0) "/>
	<polygon points="20.1,58.98 19,55.41 17.78,59.04 14.05,58.98 17.13,61.26 15.92,64.79 19.04,62.57 22.03,64.81 20.87,61.16 23.93,59.01 " style="stroke: none; stroke-width: 1; stroke-dasharray: none; stroke-linecap: butt; stroke-linejoin: miter; stroke-miterlimit: 10; fill: rgb(255,204,0); fill-rule: nonzero; opacity: 1;" transform="  matrix(1 0 0 1 0 0) "/>
	<polygon points="31,70.19 29.9,66.62 28.68,70.25 24.95,70.2 28.03,72.47 26.82,76.01 29.94,73.78 32.93,76.02 31.77,72.37 34.83,70.22 " style="stroke: none; stroke-width: 1; stroke-dasharray: none; stroke-linecap: butt; stroke-linejoin: miter; stroke-miterlimit: 10; fill: rgb(255,204,0); fill-rule: nonzero; opacity: 1;" transform="  matrix(1 0 0 1 0 0) "/>
	<polygon points="46.11,74.24 45.01,70.67 43.79,74.31 40.06,74.25 43.14,76.53 41.93,80.06 45.05,77.83 48.04,80.07 46.88,76.42 49.94,74.27 " style="stroke: none; stroke-width: 1; stroke-dasharray: none; stroke-linecap: butt; stroke-linejoin: miter; stroke-miterlimit: 10; fill: rgb(255,204,0); fill-rule: nonzero; opacity: 1;" transform="  matrix(1 0 0 1 0 0) "/>
	<polygon points="61.22,70.19 60.12,66.62 58.9,70.25 55.17,70.2 58.25,72.47 57.04,76.01 60.16,73.78 63.15,76.02 61.99,72.37 65.05,70.22 " style="stroke: none; stroke-width: 1; stroke-dasharray: none; stroke-linecap: butt; stroke-linejoin: miter; stroke-miterlimit: 10; fill: rgb(255,204,0); fill-rule: nonzero; opacity: 1;" transform="  matrix(1 0 0 1 0 0) "/>
	<polygon points="72.43,58.98 71.33,55.41 70.12,59.04 66.38,58.98 69.46,61.26 68.25,64.79 71.37,62.57 74.36,64.81 73.21,61.16 76.26,59.01 " style="stroke: none; stroke-width: 1; stroke-dasharray: none; stroke-linecap: butt; stroke-linejoin: miter; stroke-miterlimit: 10; fill: rgb(255,204,0); fill-rule: nonzero; opacity: 1;" transform="  matrix(1 0 0 1 0 0) "/>
</g>
</svg>