<svg width="327" height="504" viewBox="0 0 327 504" fill="none" xmlns="http://www.w3.org/2000/svg">
<path d="M25.916 264.812L326.638 414.553L176.307 178.01L25.916 264.812Z" fill="url(#paint0_linear_11298_22235)"/>
<path d="M287.624 218.477L176.247 154.175V4.42996L25.916 91.2273V264.81L176.247 178.013V327.758L25.916 414.555L176.247 501.353L326.578 414.555V285.952C326.578 258.114 311.725 232.396 287.624 218.477Z" fill="#1E1F22"/>
<path d="M3.40039 267.4L139.205 335.328" stroke="url(#paint1_linear_11298_22235)" stroke-width="2"/>
<path d="M5.41603 265.676L154.247 179.745V327.181L4.416 413.689L2.91608 414.555L4.416 415.421L154.747 502.219L155.247 502.508L155.747 502.219L306.078 415.421L306.578 415.133V414.555V285.952C306.578 257.757 291.534 231.708 267.124 217.611L266.624 218.477L267.124 217.611L156.247 153.598V4.42996V2.69787L154.747 3.56395L4.416 90.3613L3.91602 90.65V91.2273V264.81V266.542L5.41603 265.676Z" stroke="url(#paint2_linear_11298_22235)" stroke-width="2"/>
<defs>
<linearGradient id="paint0_linear_11298_22235" x1="25.916" y1="296.281" x2="326.638" y2="296.281" gradientUnits="userSpaceOnUse">
<stop stop-color="#FFC010"/>
<stop offset="0.99" stop-color="#B24F18"/>
</linearGradient>
<linearGradient id="paint1_linear_11298_22235" x1="192" y1="401" x2="57.5" y2="160" gradientUnits="userSpaceOnUse">
<stop offset="0.186872" stop-color="#B3AFAD"/>
<stop offset="1" stop-color="#4B4A4C"/>
</linearGradient>
<linearGradient id="paint2_linear_11298_22235" x1="319.5" y1="494.5" x2="57.5" y2="22" gradientUnits="userSpaceOnUse">
<stop stop-color="#F8F4F2"/>
<stop offset="1" stop-color="#1E1F22"/>
</linearGradient>
</defs>
</svg>
