<svg width="145" height="72" viewBox="0 0 145 72" fill="none" xmlns="http://www.w3.org/2000/svg">
<path d="M121.492 49.4152C121.476 49.3838 121.467 49.3438 121.467 49.2963C121.467 49.2173 121.521 49.1611 121.629 49.1298L121.953 49.0227L122.065 48.999C122.14 48.999 122.202 49.0509 122.252 49.1536C122.393 49.5179 122.621 49.7817 122.936 49.9438C123.251 50.106 123.658 50.1871 124.155 50.1871C124.743 50.1871 125.183 50.0941 125.473 49.9082C125.762 49.7222 125.908 49.4541 125.908 49.106C125.908 48.8368 125.836 48.6282 125.691 48.4811C125.546 48.3341 125.351 48.2292 125.106 48.1655C124.862 48.1017 124.528 48.0509 124.105 48.0109C123.566 47.9633 123.127 47.8941 122.787 47.8033C122.447 47.7125 122.163 47.5417 121.935 47.2919C121.707 47.0422 121.594 46.6833 121.594 46.2152C121.594 45.6606 121.803 45.2238 122.222 44.9071C122.64 44.5903 123.248 44.4314 124.043 44.4314C125.336 44.4314 126.183 44.8638 126.581 45.7276C126.606 45.7752 126.619 45.8184 126.619 45.8584C126.619 45.9373 126.569 45.9968 126.469 46.0368L126.158 46.1676C126.1 46.1914 126.054 46.2033 126.021 46.2033C125.987 46.2033 125.956 46.1892 125.928 46.1622C125.899 46.1341 125.872 46.1006 125.847 46.0606C125.705 45.759 125.499 45.5319 125.225 45.3763C124.952 45.2217 124.561 45.1449 124.056 45.1449C123.517 45.1449 123.112 45.2346 122.838 45.4119C122.565 45.5903 122.427 45.8498 122.427 46.1914C122.427 46.4844 122.504 46.7071 122.658 46.8573C122.811 47.0076 123.01 47.1114 123.254 47.1665C123.499 47.2217 123.849 47.2692 124.305 47.3092C124.827 47.3568 125.259 47.4325 125.598 47.5352C125.938 47.6379 126.21 47.8109 126.413 48.053C126.616 48.2952 126.718 48.6336 126.718 49.0703C126.718 49.6411 126.504 50.0876 126.078 50.4087C125.651 50.7298 125.014 50.8909 124.169 50.8909C122.784 50.8909 121.893 50.399 121.495 49.4163L121.492 49.4152Z" fill="#FFC010"/>
<path d="M129.017 50.6813C128.626 50.5429 128.355 50.3407 128.201 50.0748C128.048 49.8088 127.971 49.4661 127.971 49.0467C127.971 48.5872 128.062 48.224 128.245 47.958C128.427 47.6921 128.717 47.5018 129.115 47.3872C129.513 47.2726 130.044 47.2153 130.707 47.2153C131.296 47.2153 131.839 47.2553 132.337 47.3342V46.7753C132.337 46.2596 132.214 45.8596 131.97 45.5742C131.726 45.2888 131.288 45.1461 130.658 45.1461C129.837 45.1461 129.252 45.4315 128.904 46.0023C128.879 46.0423 128.852 46.0759 128.823 46.1029C128.794 46.131 128.763 46.145 128.73 46.145C128.698 46.145 128.656 46.1332 128.606 46.1094L128.307 45.9905C128.199 45.9591 128.145 45.9029 128.145 45.824C128.145 45.784 128.158 45.7364 128.183 45.6813C128.647 44.8488 129.48 44.4326 130.683 44.4326C131.603 44.4326 132.248 44.6445 132.617 45.0694C132.985 45.4932 133.17 46.0661 133.17 46.7872V49.9029C133.17 50.1094 133.139 50.2553 133.077 50.3429C133.014 50.4305 132.897 50.5094 132.723 50.5807C132.225 50.7872 131.537 50.8899 130.658 50.8899C129.953 50.8899 129.406 50.8207 129.016 50.6823L129.017 50.6813ZM129.191 49.9321C129.439 50.1267 129.907 50.224 130.596 50.224C131.285 50.224 131.76 50.1602 132.101 50.0337C132.2 49.9937 132.264 49.9548 132.293 49.9148C132.323 49.8748 132.337 49.8002 132.337 49.6888V47.9645C131.591 47.8932 131.019 47.8575 130.62 47.8575C129.956 47.8575 129.49 47.9483 129.221 48.131C128.952 48.3137 128.817 48.6142 128.817 49.0348C128.817 49.4553 128.941 49.7386 129.19 49.9321H129.191Z" fill="#FFC010"/>
<path d="M135.632 50.6758C135.599 50.6444 135.583 50.5882 135.583 50.5093V45.3482H134.476C134.392 45.3482 134.334 45.332 134.302 45.3006C134.268 45.2693 134.252 45.2131 134.252 45.1341V44.825C134.252 44.7374 134.268 44.6801 134.302 44.652C134.335 44.6239 134.392 44.6109 134.476 44.6109H135.583V44.3136C135.583 43.465 135.777 42.8585 136.168 42.4942C136.557 42.1298 137.2 41.9396 138.095 41.9233H138.195C138.285 41.9233 138.346 41.9374 138.375 41.9644C138.404 41.9925 138.418 42.0498 138.418 42.1374V42.4466C138.418 42.5342 138.402 42.5936 138.369 42.625C138.335 42.6563 138.278 42.6725 138.195 42.6725C137.73 42.6725 137.372 42.7201 137.119 42.8152C136.866 42.9104 136.685 43.0747 136.578 43.3093C136.47 43.5428 136.416 43.8779 136.416 44.3136V44.6109H138.22C138.303 44.6109 138.36 44.6271 138.394 44.6585C138.427 44.6898 138.443 44.746 138.443 44.825V45.1341C138.443 45.2131 138.427 45.2693 138.394 45.3006C138.36 45.332 138.303 45.3482 138.22 45.3482H136.416V50.5093C136.416 50.5882 136.402 50.6444 136.373 50.6758C136.344 50.7071 136.283 50.7233 136.192 50.7233H135.807C135.723 50.7233 135.665 50.7071 135.632 50.6758Z" fill="#FFC010"/>
<path d="M139.961 50.2478C139.514 49.8196 139.29 49.2326 139.29 48.4878V46.9418C139.29 46.1494 139.525 45.5332 139.993 45.0932C140.461 44.6532 141.143 44.4326 142.038 44.4326C142.933 44.4326 143.628 44.6564 144.097 45.105C144.565 45.5526 144.799 46.1494 144.799 46.8942V47.5483C144.799 47.7699 144.675 47.8813 144.426 47.8813H140.122V48.571C140.122 49.0867 140.282 49.4867 140.601 49.7721C140.92 50.0575 141.383 50.2002 141.988 50.2002C142.908 50.2002 143.559 49.8715 143.941 49.2132C144.015 49.1256 144.081 49.0823 144.14 49.0823C144.189 49.0823 144.244 49.0986 144.302 49.1299L144.564 49.2607C144.663 49.3083 144.713 49.3678 144.713 49.4391C144.713 49.4867 144.692 49.5418 144.65 49.6056C144.153 50.4618 143.261 50.8899 141.977 50.8899C141.081 50.8899 140.409 50.6759 139.961 50.2478ZM143.966 47.2629V46.8467C143.966 46.3072 143.801 45.8856 143.475 45.5807C143.147 45.2759 142.668 45.1234 142.038 45.1234C141.408 45.1234 140.942 45.2759 140.614 45.5807C140.287 45.8856 140.124 46.3083 140.124 46.8467V47.2629H143.967H143.966Z" fill="#FFC010"/>
<path d="M78.8371 50.5029C77.9765 50.2012 77.3754 49.7569 77.0338 49.1699C76.6922 48.5829 76.5225 47.8337 76.5225 46.9202C76.5225 45.9093 76.7268 45.1148 77.1365 44.5364C77.5462 43.958 78.1765 43.5461 79.0284 43.3018C79.8803 43.0575 81.0317 42.9353 82.4803 42.9353C82.9235 42.9353 83.5289 42.9602 84.2954 43.0088V42.4218C84.2954 41.8023 84.1419 41.3418 83.8349 41.0402C83.5279 40.7385 83.0252 40.5883 82.3257 40.5883C81.3873 40.5883 80.6803 40.8899 80.2035 41.4931C80.0673 41.6888 79.9473 41.8272 79.8457 41.9093C79.743 41.9915 79.6154 42.0315 79.4619 42.0315C79.3257 42.0315 79.1376 41.9829 78.8998 41.8845L77.4933 41.3461C77.0327 41.1666 76.8025 40.9223 76.8025 40.6121C76.8025 40.4488 76.8619 40.2618 76.9819 40.0499C77.4425 39.2348 78.1279 38.6077 79.0403 38.1666C79.9517 37.7266 81.09 37.5061 82.4544 37.5061C84.4998 37.5061 85.9614 37.958 86.8403 38.8629C87.7181 39.7677 88.1571 41.0348 88.1571 42.665V48.8758C88.1571 49.2996 88.0933 49.6056 87.9657 49.7926C87.8381 49.9807 87.5862 50.1472 87.2111 50.2942C86.1884 50.7342 84.5776 50.9548 82.3776 50.9548C80.8771 50.9548 79.6965 50.8034 78.836 50.5029H78.8371ZM80.7419 47.8012C80.9808 48.0131 81.4327 48.1191 82.0976 48.1191C82.9333 48.1191 83.6068 48.078 84.1181 47.9969C84.2371 47.9645 84.2976 47.9072 84.2976 47.8261V45.7483C83.3257 45.6996 82.61 45.6748 82.1495 45.6748C81.4673 45.6748 81.0025 45.7807 80.756 45.9926C80.5084 46.2045 80.3852 46.5061 80.3852 46.8975C80.3852 47.2888 80.5041 47.5904 80.743 47.8023L80.7419 47.8012Z" fill="#F5F5F5"/>
<path d="M105.498 49.5979C104.458 48.693 103.938 47.4336 103.938 45.8206V42.666C103.938 41.0357 104.458 39.7687 105.498 38.8638C106.538 37.959 108.046 37.5071 110.024 37.5071C112.003 37.5071 113.537 37.959 114.577 38.8638C115.617 39.7687 116.137 41.0357 116.137 42.666V45.8206C116.137 47.4509 115.617 48.7146 114.577 49.6109C113.537 50.5071 112.019 50.9557 110.024 50.9557C108.03 50.9557 106.538 50.5038 105.498 49.599V49.5979ZM108.362 47.2011C108.737 47.519 109.29 47.6779 110.024 47.6779C110.759 47.6779 111.337 47.519 111.712 47.2011C112.087 46.8833 112.274 46.4314 112.274 45.8444V42.6173C112.274 41.3946 111.524 40.7838 110.023 40.7838C108.523 40.7838 107.799 41.3946 107.799 42.6173V45.8444C107.799 46.4314 107.986 46.8833 108.362 47.2011Z" fill="#F5F5F5"/>
<path d="M102.582 49.4887L100.357 45.1849C99.9142 44.3536 99.4363 43.7666 98.925 43.425L102.377 38.9504C102.547 38.7222 102.633 38.519 102.633 38.3395C102.633 38.0304 102.326 37.8747 101.712 37.8747H99.9985C99.4526 37.8747 99.0688 37.9158 98.8472 37.9968C98.6255 38.079 98.4039 38.2822 98.1823 38.6077L95.3185 42.4952H94.6028V32.4941L90.7412 34.7233V49.6585C90.7412 50.0174 90.8093 50.2617 90.9455 50.3925C91.0818 50.5233 91.338 50.5882 91.7131 50.5882H93.6309C94.0061 50.5882 94.2612 50.5233 94.3985 50.3925C94.5347 50.2617 94.6028 50.0174 94.6028 49.6585V45.7709H95.498C95.9239 45.7709 96.2655 45.8487 96.5207 46.0033C96.7769 46.1579 96.9812 46.4066 97.1347 46.7493L98.4904 49.7568C98.6601 50.1158 98.8482 50.3439 99.0526 50.4412C99.2569 50.5395 99.632 50.5882 100.178 50.5882H101.942C102.249 50.5882 102.471 50.5558 102.607 50.4909C102.743 50.426 102.811 50.3114 102.811 50.1482C102.811 49.9687 102.735 49.7493 102.581 49.4877L102.582 49.4887Z" fill="#F5F5F5"/>
<path d="M73.353 38.8152C72.4319 37.9439 71.0514 37.5071 69.2103 37.5071C68.4092 37.5071 67.607 37.5893 66.806 37.7514V32.4941L62.9443 34.7233V48.7785C62.9443 49.1698 62.9995 49.4466 63.1108 49.6098C63.2211 49.7731 63.4816 49.9525 63.8903 50.1482C64.4189 50.3763 65.1087 50.5677 65.9616 50.7233C66.8135 50.8779 67.7346 50.9558 68.7238 50.9558C70.7184 50.9558 72.2189 50.5039 73.2243 49.599C74.2297 48.6941 74.7335 47.3698 74.7335 45.626V42.5698C74.7335 40.9395 74.273 39.6887 73.353 38.8163V38.8152ZM70.8719 45.625C70.8719 46.3093 70.6806 46.8195 70.2968 47.1536C69.913 47.4877 69.3206 47.6552 68.5195 47.6552C67.8546 47.6552 67.3087 47.5904 66.8827 47.4595C66.8319 47.4433 66.806 47.4022 66.806 47.3374V41.0779C67.4362 40.8985 68.0676 40.8087 68.6978 40.8087C69.3962 40.8087 69.9335 40.9601 70.3087 41.2606C70.6838 41.5622 70.8708 42.0066 70.8708 42.5936V45.626L70.8719 45.625Z" fill="#F5F5F5"/>
<g clip-path="url(#clip0_12221_11750)">
<path d="M23.9556 37.0673L51.0961 50.5815L37.5285 29.2334L23.9556 37.0673Z" fill="#FFC010"/>
<path d="M47.575 32.8855L37.5231 27.0822V13.5676L23.9556 21.4011V37.0671L37.5231 29.2336V42.7482L23.9556 50.5817L37.5231 58.4152L51.0907 50.5817V38.9752C51.0907 36.4628 49.7502 34.1417 47.575 32.8855Z" fill="#F5F5F5"/>
</g>
<defs>
<clipPath id="clip0_12221_11750">
<rect width="72" height="72" fill="white" transform="translate(0 -0.0539551)"/>
</clipPath>
</defs>
</svg>
