<svg width="218" height="80" viewBox="0 0 218 80" fill="none" xmlns="http://www.w3.org/2000/svg">
<path d="M175.197 63.9468C175.168 63.8909 175.152 63.8195 175.152 63.7347C175.152 63.5939 175.249 63.4936 175.444 63.4377L176.024 63.2468L176.226 63.2044C176.36 63.2044 176.473 63.2969 176.562 63.4801C176.815 64.13 177.224 64.6006 177.791 64.8898C178.356 65.1791 179.087 65.3237 179.98 65.3237C181.036 65.3237 181.827 65.1579 182.347 64.8262C182.867 64.4945 183.13 64.0162 183.13 63.3953C183.13 62.9151 183 62.5429 182.739 62.2806C182.479 62.0184 182.128 61.8313 181.689 61.7175C181.25 61.6037 180.65 61.5131 179.891 61.4418C178.922 61.3569 178.133 61.2335 177.523 61.0715C176.912 60.9095 176.403 60.6048 175.993 60.1593C175.583 59.7139 175.38 59.0736 175.38 58.2386C175.38 57.2493 175.756 56.4702 176.508 55.9052C177.259 55.3401 178.351 55.0566 179.78 55.0566C182.102 55.0566 183.623 55.828 184.337 57.3689C184.382 57.4537 184.405 57.5308 184.405 57.6022C184.405 57.743 184.316 57.849 184.137 57.9204L183.578 58.1537C183.473 58.1962 183.392 58.2174 183.332 58.2174C183.271 58.2174 183.215 58.1923 183.165 58.1441C183.112 58.094 183.064 58.0342 183.019 57.9628C182.765 57.4248 182.394 57.0198 181.902 56.7421C181.411 56.4663 180.71 56.3294 179.803 56.3294C178.834 56.3294 178.106 56.4895 177.615 56.8058C177.123 57.1239 176.877 57.5868 176.877 58.1962C176.877 58.7188 177.015 59.116 177.29 59.3841C177.566 59.6521 177.923 59.8373 178.362 59.9356C178.801 60.034 179.43 60.1188 180.25 60.1902C181.188 60.275 181.963 60.41 182.572 60.5932C183.182 60.7764 183.671 61.085 184.037 61.517C184.402 61.9489 184.584 62.5525 184.584 63.3316C184.584 64.3499 184.2 65.1463 183.435 65.7191C182.667 66.2918 181.524 66.5792 180.005 66.5792C177.518 66.5792 175.917 65.7017 175.203 63.9487L175.197 63.9468Z" fill="#FFC010"/>
<path d="M188.714 66.2051C188.013 65.9582 187.525 65.5976 187.25 65.1232C186.974 64.6488 186.836 64.0375 186.836 63.2892C186.836 62.4696 186.999 61.8217 187.327 61.3473C187.655 60.8729 188.176 60.5335 188.89 60.3291C189.605 60.1246 190.559 60.0224 191.751 60.0224C192.807 60.0224 193.784 60.0938 194.677 60.2346V59.2376C194.677 58.3177 194.458 57.6042 194.019 57.095C193.58 56.5859 192.794 56.3314 191.662 56.3314C190.188 56.3314 189.137 56.8405 188.512 57.8587C188.467 57.9301 188.419 57.9898 188.366 58.0381C188.314 58.0882 188.257 58.1133 188.199 58.1133C188.141 58.1133 188.065 58.0921 187.976 58.0496L187.44 57.8375C187.246 57.7816 187.149 57.6813 187.149 57.5405C187.149 57.4692 187.172 57.3843 187.217 57.286C188.05 55.801 189.547 55.0586 191.706 55.0586C193.359 55.0586 194.518 55.4366 195.18 56.1945C195.842 56.9504 196.175 57.9725 196.175 59.2588V64.8166C196.175 65.1849 196.118 65.4452 196.008 65.6014C195.895 65.7577 195.683 65.8984 195.371 66.0257C194.477 66.394 193.24 66.5773 191.662 66.5773C190.395 66.5773 189.413 66.4538 188.712 66.207L188.714 66.2051ZM189.026 64.8686C189.473 65.2158 190.314 65.3893 191.551 65.3893C192.788 65.3893 193.642 65.2755 194.254 65.0499C194.433 64.9786 194.547 64.9091 194.6 64.8378C194.652 64.7664 194.677 64.6334 194.677 64.4347V61.3589C193.337 61.2316 192.31 61.1679 191.594 61.1679C190.401 61.1679 189.564 61.3299 189.081 61.6558C188.597 61.9817 188.354 62.5179 188.354 63.268C188.354 64.0182 188.578 64.5234 189.024 64.8686H189.026Z" fill="#FFC010"/>
<path d="M200.597 66.1948C200.537 66.1389 200.508 66.0386 200.508 65.8978V56.6914H198.519C198.37 56.6914 198.265 56.6624 198.207 56.6065C198.146 56.5506 198.117 56.4503 198.117 56.3095V55.758C198.117 55.6018 198.146 55.4996 198.207 55.4494C198.267 55.3993 198.37 55.3762 198.519 55.3762H200.508V54.8458C200.508 53.332 200.857 52.2501 201.558 51.6003C202.257 50.9504 203.413 50.611 205.021 50.582H205.199C205.362 50.582 205.471 50.6071 205.524 50.6553C205.576 50.7054 205.601 50.8077 205.601 50.9639V51.5154C205.601 51.6716 205.572 51.7777 205.512 51.8336C205.452 51.8895 205.349 51.9184 205.199 51.9184C204.364 51.9184 203.721 52.0033 203.267 52.173C202.813 52.3427 202.488 52.6358 202.296 53.0543C202.102 53.4709 202.005 54.0687 202.005 54.8458V55.3762H205.244C205.393 55.3762 205.496 55.4051 205.557 55.461C205.617 55.5169 205.646 55.6172 205.646 55.758V56.3095C205.646 56.4503 205.617 56.5506 205.557 56.6065C205.496 56.6624 205.393 56.6914 205.244 56.6914H202.005V65.8978C202.005 66.0386 201.98 66.1389 201.927 66.1948C201.875 66.2507 201.766 66.2796 201.603 66.2796H200.91C200.76 66.2796 200.655 66.2507 200.597 66.1948Z" fill="#FFC010"/>
<path d="M208.374 65.4318C207.57 64.6681 207.168 63.6209 207.168 62.2922V59.5345C207.168 58.121 207.589 57.0218 208.43 56.2369C209.271 55.452 210.496 55.0586 212.104 55.0586C213.712 55.0586 214.961 55.4578 215.802 56.2581C216.642 57.0565 217.064 58.121 217.064 59.4497V60.6164C217.064 61.0117 216.841 61.2104 216.394 61.2104H208.663V62.4407C208.663 63.3606 208.951 64.0741 209.523 64.5832C210.096 65.0923 210.927 65.3469 212.015 65.3469C213.667 65.3469 214.837 64.7606 215.522 63.5862C215.656 63.43 215.774 63.3529 215.879 63.3529C215.969 63.3529 216.066 63.3818 216.171 63.4377L216.641 63.6711C216.819 63.7559 216.909 63.862 216.909 63.9893C216.909 64.0741 216.872 64.1725 216.796 64.2862C215.903 65.8136 214.301 66.5773 211.994 66.5773C210.386 66.5773 209.178 66.1954 208.374 65.4318ZM215.567 60.1073V59.3648C215.567 58.4025 215.271 57.6504 214.685 57.1066C214.097 56.5628 213.236 56.2909 212.104 56.2909C210.972 56.2909 210.135 56.5628 209.547 57.1066C208.958 57.6504 208.665 58.4045 208.665 59.3648V60.1073H215.569H215.567Z" fill="#FFC010"/>
<path d="M98.5795 65.885C97.0337 65.347 95.954 64.5544 95.3404 63.5073C94.7268 62.4601 94.4219 61.1237 94.4219 59.4942C94.4219 57.691 94.7889 56.2736 95.5249 55.2419C96.2608 54.2102 97.393 53.4754 98.9232 53.0396C100.453 52.6038 102.522 52.3859 105.124 52.3859C105.92 52.3859 107.007 52.4302 108.384 52.517V51.4699C108.384 50.3648 108.108 49.5433 107.557 49.0053C107.005 48.4673 106.102 48.1992 104.846 48.1992C103.16 48.1992 101.89 48.7372 101.034 49.8133C100.789 50.1624 100.574 50.4092 100.391 50.5558C100.207 50.7023 99.9776 50.7737 99.7019 50.7737C99.4572 50.7737 99.1193 50.6869 98.6921 50.5114L96.1657 49.551C95.3385 49.2309 94.9248 48.7951 94.9248 48.2416C94.9248 47.9504 95.0316 47.6168 95.2472 47.2388C96.0744 45.7848 97.3056 44.6663 98.9445 43.8795C100.582 43.0946 102.626 42.7012 105.077 42.7012C108.751 42.7012 111.377 43.5073 112.955 45.1214C114.532 46.7355 115.321 48.9956 115.321 51.9038V62.9827C115.321 63.7387 115.206 64.2844 114.977 64.6181C114.748 64.9536 114.295 65.2506 113.621 65.5129C111.784 66.2977 108.891 66.6911 104.939 66.6911C102.244 66.6911 100.123 66.4212 98.5775 65.885H98.5795ZM102.001 61.0658C102.43 61.4438 103.242 61.6328 104.436 61.6328C105.937 61.6328 107.147 61.5595 108.066 61.4149C108.279 61.357 108.388 61.2548 108.388 61.1102V57.4037C106.642 57.3169 105.357 57.2726 104.529 57.2726C103.304 57.2726 102.469 57.4616 102.026 57.8395C101.582 58.2175 101.36 58.7556 101.36 59.4537C101.36 60.1518 101.574 60.6898 102.003 61.0678L102.001 61.0658Z" fill="#F5F5F5"/>
<path d="M146.466 64.271C144.598 62.6568 143.664 60.4102 143.664 57.5329V51.9057C143.664 48.9976 144.598 46.7374 146.466 45.1233C148.334 43.5092 151.043 42.7031 154.597 42.7031C158.151 42.7031 160.906 43.5092 162.774 45.1233C164.642 46.7374 165.576 48.9976 165.576 51.9057V57.5329C165.576 60.441 164.642 62.6954 162.774 64.2941C160.906 65.8928 158.18 66.6931 154.597 66.6931C151.014 66.6931 148.334 65.887 146.466 64.2729V64.271ZM151.61 59.9956C152.284 60.5625 153.278 60.846 154.597 60.846C155.915 60.846 156.954 60.5625 157.628 59.9956C158.302 59.4286 158.638 58.6225 158.638 57.5754V51.8189C158.638 49.6378 157.29 48.5483 154.595 48.5483C151.9 48.5483 150.599 49.6378 150.599 51.8189V57.5754C150.599 58.6225 150.935 59.4286 151.61 59.9956Z" fill="#F5F5F5"/>
<path d="M141.23 64.077L137.234 56.3998C136.438 54.9169 135.58 53.8697 134.661 53.2603L140.862 45.2784C141.166 44.8715 141.322 44.509 141.322 44.1889C141.322 43.6373 140.77 43.3596 139.667 43.3596H136.589C135.609 43.3596 134.919 43.4329 134.521 43.5776C134.123 43.7241 133.725 44.0867 133.327 44.6671L128.183 51.6018H126.897V33.7617L119.961 37.7382V64.3798C119.961 65.02 120.083 65.4559 120.328 65.6892C120.573 65.9226 121.033 66.0383 121.707 66.0383H125.152C125.825 66.0383 126.284 65.9226 126.53 65.6892C126.775 65.4559 126.897 65.02 126.897 64.3798V57.4451H128.505C129.27 57.4451 129.884 57.5839 130.342 57.8597C130.803 58.1355 131.17 58.579 131.445 59.1903L133.88 64.5553C134.185 65.1955 134.523 65.6024 134.89 65.776C135.257 65.9515 135.931 66.0383 136.912 66.0383H140.081C140.632 66.0383 141.03 65.9804 141.275 65.8647C141.52 65.749 141.642 65.5446 141.642 65.2534C141.642 64.9333 141.504 64.5418 141.229 64.0751L141.23 64.077Z" fill="#F5F5F5"/>
<path d="M88.7278 45.0374C87.0733 43.4831 84.5935 42.704 81.2865 42.704C79.8475 42.704 78.4066 42.8505 76.9677 43.1398V33.7617L70.0312 37.7382V62.81C70.0312 63.5081 70.1303 64.0018 70.3303 64.293C70.5284 64.5842 70.9964 64.9043 71.7304 65.2534C72.68 65.6603 73.9189 66.0016 75.4511 66.2793C76.9813 66.5551 78.6358 66.6939 80.4126 66.6939C83.9954 66.6939 86.6908 65.8878 88.4967 64.2737C90.3027 62.6596 91.2076 60.2973 91.2076 57.1867V51.7349C91.2076 48.8268 90.3803 46.5956 88.7278 45.0393V45.0374ZM84.2712 57.1847C84.2712 58.4054 83.9274 59.3157 83.2381 59.9116C82.5487 60.5074 81.4845 60.8064 80.0456 60.8064C78.8513 60.8064 77.8707 60.6907 77.1056 60.4573C77.0143 60.4284 76.9677 60.3551 76.9677 60.2394V49.0736C78.0998 48.7535 79.2339 48.5935 80.366 48.5935C81.6205 48.5935 82.5856 48.8634 83.2594 49.3996C83.9333 49.9376 84.2692 50.7302 84.2692 51.7773V57.1867L84.2712 57.1847Z" fill="#F5F5F5"/>
<path d="M0 41.9196L48.7512 66.0265L24.3805 27.9453L0 41.9196Z" fill="#FFC010"/>
<path d="M42.4265 34.4596L24.3708 24.1076V0L0 13.9736V41.9188L24.3708 27.9452V52.0528L0 66.0264L24.3708 80L48.7415 66.0264V45.3225C48.7415 40.8408 46.3336 36.7004 42.4265 34.4596Z" fill="#F5F5F5"/>
</svg>
