<svg width="109" height="54" viewBox="0 0 109 54" fill="none" xmlns="http://www.w3.org/2000/svg">
<path d="M28.3203 23.2602L16.2678 16.2726V0L0 9.43217V28.2952L16.2678 18.863V35.1357L0 44.5678L16.2678 54L32.5357 44.5678V30.5927C32.5357 27.5675 30.9284 24.7728 28.3203 23.2602Z" fill="#F5F5F5"/>
<path d="M65.1797 44.136C64.1687 43.7783 63.4625 43.2514 63.0612 42.5553C62.6599 41.8592 62.4604 40.9708 62.4604 39.8876C62.4604 38.689 62.7005 37.7467 63.1819 37.0609C63.6632 36.375 64.4037 35.8866 65.4045 35.5969C66.4053 35.3072 67.758 35.1623 69.4599 35.1623C69.9806 35.1623 70.6919 35.1918 71.5924 35.2495V34.5534C71.5924 33.8188 71.412 33.2727 71.0513 32.9151C70.6906 32.5574 70.1 32.3792 69.2783 32.3792C68.1758 32.3792 67.3452 32.7369 66.7851 33.4522C66.6251 33.6842 66.4841 33.8483 66.3647 33.9458C66.244 34.0432 66.0942 34.0906 65.9138 34.0906C65.7538 34.0906 65.5328 34.0329 65.2534 33.9163L63.601 33.2779C63.0599 33.0651 62.7894 32.7753 62.7894 32.4074C62.7894 32.2138 62.8593 31.9921 63.0002 31.7408C63.5413 30.7742 64.3465 30.0307 65.4185 29.5076C66.4892 28.9859 67.8266 28.7244 69.4294 28.7244C71.8324 28.7244 73.5496 29.2602 74.5821 30.3332C75.6135 31.4062 76.1291 32.9087 76.1291 34.8418V42.2066C76.1291 42.7092 76.0542 43.072 75.9043 43.2937C75.7544 43.5168 75.4585 43.7142 75.0178 43.8886C73.8163 44.4103 71.9239 44.6718 69.3392 44.6718C67.5764 44.6718 66.1894 44.4924 65.1784 44.136H65.1797ZM67.4176 40.9324C67.6983 41.1836 68.2292 41.3093 69.0103 41.3093C69.9921 41.3093 70.7833 41.2606 71.3841 41.1644C71.5238 41.126 71.5949 41.058 71.5949 40.9619V38.498C70.4531 38.4403 69.6123 38.4108 69.0712 38.4108C68.2698 38.4108 67.7237 38.5364 67.4341 38.7877C67.1433 39.0389 66.9985 39.3966 66.9985 39.8607C66.9985 40.3247 67.1382 40.6824 67.4189 40.9337L67.4176 40.9324Z" fill="#F5F5F5"/>
<path d="M96.5012 43.0632C95.2794 41.9902 94.6685 40.4967 94.6685 38.584V34.8433C94.6685 32.9101 95.2794 31.4077 96.5012 30.3347C97.723 29.2617 99.4948 28.7258 101.819 28.7258C104.143 28.7258 105.946 29.2617 107.167 30.3347C108.389 31.4077 109 32.9101 109 34.8433V38.584C109 40.5172 108.389 42.0158 107.167 43.0785C105.946 44.1413 104.162 44.6733 101.819 44.6733C99.4757 44.6733 97.723 44.1374 96.5012 43.0645V43.0632ZM99.8656 40.2211C100.306 40.598 100.957 40.7864 101.819 40.7864C102.681 40.7864 103.361 40.598 103.802 40.2211C104.242 39.8442 104.462 39.3083 104.462 38.6122V34.7856C104.462 33.3357 103.581 32.6114 101.818 32.6114C100.055 32.6114 99.2039 33.3357 99.2039 34.7856V38.6122C99.2039 39.3083 99.4237 39.8442 99.8656 40.2211Z" fill="#F5F5F5"/>
<path d="M93.0758 42.9335L90.462 37.8301C89.9412 36.8442 89.3799 36.1481 88.7791 35.7431L92.8345 30.4371C93.0339 30.1666 93.1355 29.9256 93.1355 29.7128C93.1355 29.3461 92.7748 29.1615 92.0534 29.1615H90.0403C89.3989 29.1615 88.948 29.2102 88.6877 29.3064C88.4273 29.4038 88.1669 29.6448 87.9066 30.0307L84.5421 34.6406H83.7013V22.7812L79.1646 25.4246V43.1348C79.1646 43.5604 79.2446 43.8501 79.4046 44.0052C79.5646 44.1603 79.8656 44.2373 80.3064 44.2373H82.5595C83.0002 44.2373 83.3 44.1603 83.4613 44.0052C83.6213 43.8501 83.7013 43.5604 83.7013 43.1348V38.5249H84.7529C85.2533 38.5249 85.6547 38.6172 85.9544 38.8005C86.2554 38.9838 86.4955 39.2787 86.6758 39.685L88.2685 43.2514C88.4679 43.677 88.6889 43.9475 88.929 44.0629C89.169 44.1796 89.6097 44.2373 90.2511 44.2373H92.3239C92.6846 44.2373 92.945 44.1988 93.105 44.1219C93.265 44.045 93.3451 43.9091 93.3451 43.7155C93.3451 43.5027 93.2549 43.2425 93.0745 42.9322L93.0758 42.9335Z" fill="#F5F5F5"/>
<path d="M58.7352 30.2768C57.6531 29.2436 56.0312 28.7257 53.8683 28.7257C52.9271 28.7257 51.9847 28.8231 51.0436 29.0154V22.7812L46.5068 25.4246V42.0913C46.5068 42.5553 46.5716 42.8835 46.7024 43.0771C46.832 43.2707 47.1381 43.4835 47.6182 43.7155C48.2392 43.986 49.0495 44.2129 50.0516 44.3975C51.0525 44.5808 52.1346 44.6731 53.2967 44.6731C55.64 44.6731 57.4029 44.1373 58.5841 43.0643C59.7653 41.9913 60.3571 40.4209 60.3571 38.3531V34.729C60.3571 32.7958 59.8161 31.3126 58.7352 30.2781V30.2768ZM55.8204 38.3518C55.8204 39.1633 55.5956 39.7684 55.1447 40.1645C54.6938 40.5606 53.9978 40.7593 53.0567 40.7593C52.2756 40.7593 51.6342 40.6824 51.1338 40.5273C51.0741 40.5081 51.0436 40.4593 51.0436 40.3824V32.9599C51.784 32.7471 52.5258 32.6407 53.2662 32.6407C54.0867 32.6407 54.7179 32.8202 55.1587 33.1766C55.5994 33.5343 55.8191 34.0611 55.8191 34.7572V38.3531L55.8204 38.3518Z" fill="#F5F5F5"/>
</svg>
