<svg width="1349" height="1440" viewBox="0 0 1349 1440" fill="none" xmlns="http://www.w3.org/2000/svg">
<path fill-rule="evenodd" clip-rule="evenodd" d="M1132.9 573.57C1157.22 532.176 1176.36 488.197 1189 442.635C1256.85 198.149 1112.95 0 867.609 0C865.628 0 863.618 0.098983 861.641 0.127846L861.674 0H649.18C584.772 0 530.743 40.1319 514.008 100.464L447.131 343.981H756.399L756.366 344.014C756.886 344.014 757.373 343.981 757.893 343.981C820.065 343.981 856.516 394.194 839.326 456.11C822.108 518.054 757.827 568.238 695.656 568.238C695.136 568.238 694.649 568.205 694.166 568.205V568.238H384.865L447.102 343.981H258.22C193.778 343.981 139.78 384.146 123.045 444.445L0 885.27H825.025H824.992C825.512 885.27 826.032 885.27 826.515 885.27C888.687 885.27 925.142 935.45 907.952 997.365C890.763 1059.31 826.453 1109.49 764.282 1109.49C763.795 1109.49 763.308 1109.46 762.788 1109.46V1109.49H341.245C276.836 1109.49 222.805 1149.66 206.07 1209.99L142.245 1440H758.248L758.281 1439.87C760.258 1439.9 762.173 1440 764.183 1440C1009.53 1440 1263.4 1241.85 1331.25 997.365C1386.74 797.373 1300.47 628.438 1132.9 573.57Z" fill="#121212"/>
<path d="M1152.93 670.23L1154.49 667.578C1176.03 630.906 1192.97 591.962 1204.15 551.634C1234.17 443.441 1217.29 345.756 1166.06 275.171C1114.83 204.6 1029.04 160.814 920.597 160.814C919.572 160.814 918.616 160.842 917.623 160.872C916.89 160.893 916.138 160.916 915.323 160.927L912.077 160.975L912.118 160.814H726.259C670.025 160.814 622.967 195.83 608.385 248.408L608.383 248.414M1152.93 670.23L605.995 247.752L608.383 248.414M1152.93 670.23L1155.85 671.188C1303.5 719.549 1379.78 868.44 1330.71 1045.36C1270.63 1261.94 1045.7 1437.51 828.578 1437.51C827.523 1437.51 826.565 1437.48 825.568 1437.45C824.87 1437.43 824.152 1437.4 823.368 1437.39L821.399 1437.36L821.362 1437.51H278.494L334.409 1235.93L332.486 1235.4L334.409 1235.93C348.989 1183.35 396.051 1148.3 452.287 1148.3H827.337H828.666H829.815V1148.3M1152.93 670.23L829.815 1148.3M608.383 248.414L549.745 462.013H821.652H822.982H827.632L827.532 462.113C853.765 463.276 874.796 474.505 887.691 492.269C901.312 511.035 905.636 536.791 897.821 564.952L897.82 564.953C882.324 620.723 824.878 665.947 768.761 666.559V666.566H767.609H766.283H491.096H487.837L488.708 663.425L543.21 466.969H378.419C322.154 466.969 275.121 502.017 260.541 554.57L260.541 554.573L151.944 943.778H882.68H882.707H882.71H882.71H882.713H882.715H882.718H882.721H882.724H882.726H882.729H882.732H882.734H882.737H882.74H882.743H882.745H882.748H882.751H882.753H882.756H882.759H882.762H882.764H882.767H882.77H882.772H882.775H882.778H882.781H882.783H882.786H882.789H882.791H882.794H882.797H882.799H882.802H882.805H882.808H882.81H882.813H882.816H882.818H882.821H882.824H882.827H882.829H882.832H882.835H882.837H882.84H882.843H882.846H882.848H882.851H882.854H882.856H882.859H882.862H882.864H882.867H882.87H882.873H882.875H882.878H882.881H882.883H882.886H882.889H882.892H882.894H882.897H882.9H882.902H882.905H882.908H882.91H882.913H882.916H882.919H882.921H882.924H882.927H882.929H882.932H882.935H882.938H882.94H882.943H882.946H882.948H882.951H882.954H882.956H882.959H882.962H882.965H882.967H882.97H882.973H882.975H882.978H882.981H882.983H882.986H882.989H882.992H882.994H882.997H883H883.002H883.005H883.008H883.01H883.013H883.016H883.019H883.021H883.024H883.027H883.029H883.032H883.035H883.037H883.04H883.043H883.046H883.048H883.051H883.054H883.056H883.059H883.062H883.064H883.067H883.07H883.073H883.075H883.078H883.081H883.083H883.086H883.089H883.091H883.094H883.097H883.099H883.102H883.105H883.108H883.11H883.113H883.116H883.118H883.121H883.124H883.126H883.129H883.132H883.134H883.137H883.14H883.143H883.145H883.148H883.151H883.153H883.156H883.159H883.161H883.164H883.167H883.169H883.172H883.175H883.177H883.18H883.183H883.186H883.188H883.191H883.194H883.196H883.199H883.202H883.204H883.207H883.21H883.212H883.215H883.218H883.22H883.223H883.226H883.228H883.231H883.234H883.237H883.239H883.242H883.245H883.247H883.25H883.253H883.255H883.258H883.261H883.263H883.266H883.269H883.271H883.274H883.277H883.279H883.282H883.285H883.287H883.29H883.293H883.295H883.298H883.301H883.303H883.306H883.309H883.311H883.314H883.317H883.319H883.322H883.325H883.327H883.33H883.333H883.335H883.338H883.341H883.343H883.346H883.349H883.351H883.354H883.357H883.359H883.362H883.365H883.367H883.37H883.373H883.375H883.378H883.381H883.383H883.386H883.389H883.391H883.394H883.397H883.399H883.402H883.405H883.407H883.41H883.413H883.415H883.418H883.421H883.423H883.426H883.429H883.431H883.434H883.436H883.439H883.442H883.444H883.447H883.45H883.452H883.455H883.458H883.46H883.463H883.466H883.468H883.471H883.474H883.476H883.479H883.482H883.484H883.487H883.489H883.492H883.495H883.497H883.5H883.503H883.505H883.508H883.511H883.513H883.516H883.518H883.521H883.524H883.526H883.529H883.532H883.534H883.537H883.54H883.542H883.545H883.547H883.55H883.553H883.555H883.558H883.561H883.563H883.566H883.569H883.571H883.574H883.576H883.579H883.582H883.584H883.587H883.59H883.592H883.595H883.597H883.6H883.603H883.605H883.608H883.611H883.613H883.616H883.618H883.621H883.624H883.626H883.629H883.632H883.634H883.637H883.639H883.642H883.645H883.647H883.65H883.652H883.655H883.658H883.66H883.663H883.666H883.668H883.671H883.673H883.676H883.679H883.681H883.684H883.686H883.689H883.692H883.694H883.697H883.699H883.702H883.705H883.707H883.71H883.712H883.715H883.718H883.72H883.723H883.725H883.728H883.731H883.733H883.736H883.738H883.741H883.744H883.746H883.749H883.751H883.754H883.757H883.759H883.762H883.764H883.767H883.77H883.772H883.775H883.777H883.78H883.782H883.785H883.788H883.79H883.793H883.795H883.798H883.801H883.803H883.806H883.808H883.811H883.813H883.816H883.819H883.821H883.824H883.826H883.829H883.831H883.834H883.837H883.839H883.842H883.844H883.847H883.849H883.852H883.855H883.857H883.86H883.862H883.865H883.867H883.87H883.872H883.875H883.878H883.88H883.883H883.885H883.888H883.89H883.893H883.896H883.898H883.901H883.903H883.906H883.908H883.911H883.913H883.916H883.919H883.921H883.924H883.926H883.929H883.931H883.934H883.936H883.939H883.941H883.944H883.947H883.949H883.952H883.954H883.957H883.959H883.962H883.964H883.967H883.969H883.972H883.974H883.977H883.98H883.982H883.985H883.987H883.99H883.992H883.995H883.997H884H884.002H884.005H884.007H884.01H884.012H884.015H884.017H884.02H884.023H884.025H884.028H884.03H884.033H884.035C912.386 943.778 935.113 955.247 948.746 974.02C962.369 992.778 966.693 1018.53 958.878 1046.69C943.406 1102.46 885.932 1147.68 829.815 1148.3M608.383 248.414L829.815 1148.3" stroke="#696B65" stroke-width="4.95596"/>
</svg>
