<svg width="269" height="292" viewBox="0 0 269 292" fill="none" xmlns="http://www.w3.org/2000/svg">
<path fill-rule="evenodd" clip-rule="evenodd" d="M225.593 116.636C230.5 108.284 234.362 99.4096 236.913 90.2161C250.603 40.8843 221.568 0.902344 172.063 0.902344C171.664 0.902344 171.258 0.922316 170.859 0.92814L170.866 0.902344H127.989C114.993 0.902344 104.092 9.00006 100.715 21.1737L87.2207 70.31H149.624L149.617 70.3167C149.722 70.3167 149.82 70.31 149.925 70.31C162.47 70.31 169.825 80.442 166.357 92.9351C162.882 105.434 149.912 115.56 137.367 115.56C137.262 115.56 137.164 115.553 137.067 115.553V115.56H74.6568L87.2149 70.31H49.1027C36.1 70.31 25.2043 78.4144 21.8277 90.5814L-3 179.53H163.471H163.464C163.569 179.53 163.674 179.53 163.772 179.53C176.316 179.53 183.672 189.655 180.204 202.148C176.735 214.647 163.759 224.773 151.214 224.773C151.116 224.773 151.018 224.767 150.913 224.767V224.773H65.8553C52.859 224.773 41.9568 232.878 38.5801 245.051L25.7017 291.462H149.997L150.004 291.435C150.402 291.442 150.789 291.462 151.194 291.462C200.7 291.462 251.925 251.48 265.615 202.148C276.812 161.794 259.405 127.707 225.593 116.636Z" fill="#121212"/>
<path d="M229.949 135.605L229.635 136.14L230.225 136.334C260.016 146.092 275.408 176.135 265.507 211.834C253.384 255.535 207.997 290.96 164.188 290.96C163.975 290.96 163.782 290.954 163.58 290.948C163.439 290.943 163.295 290.939 163.137 290.936L162.739 290.929L162.732 290.96H53.1936L64.4759 250.286L63.9941 250.153L64.4759 250.286C67.4177 239.676 76.9137 232.604 88.261 232.604H163.937H164.205H164.437V232.603C175.761 232.48 187.357 223.355 190.479 212.101C192.056 206.419 191.184 201.223 188.435 197.438C185.684 193.65 181.098 191.336 175.378 191.336H175.377H175.377H175.376H175.376H175.375H175.375H175.374H175.374H175.373H175.373H175.372H175.372H175.371H175.371H175.37H175.37H175.369H175.369H175.368H175.367H175.367H175.366H175.366H175.365H175.365H175.364H175.364H175.363H175.363H175.362H175.362H175.361H175.361H175.36H175.36H175.359H175.359H175.358H175.358H175.357H175.357H175.356H175.356H175.355H175.355H175.354H175.354H175.353H175.353H175.352H175.352H175.351H175.351H175.35H175.35H175.349H175.348H175.348H175.347H175.347H175.346H175.346H175.345H175.345H175.344H175.344H175.343H175.343H175.342H175.342H175.341H175.341H175.34H175.34H175.339H175.339H175.338H175.338H175.337H175.337H175.336H175.336H175.335H175.335H175.334H175.333H175.333H175.332H175.332H175.331H175.331H175.33H175.33H175.329H175.329H175.328H175.328H175.327H175.327H175.326H175.326H175.325H175.325H175.324H175.324H175.323H175.323H175.322H175.321H175.321H175.32H175.32H175.319H175.319H175.318H175.318H175.317H175.317H175.316H175.316H175.315H175.315H175.314H175.314H175.313H175.313H175.312H175.312H175.311H175.31H175.31H175.309H175.309H175.308H175.308H175.307H175.307H175.306H175.306H175.305H175.305H175.304H175.304H175.303H175.303H175.302H175.302H175.301H175.3H175.3H175.299H175.299H175.298H175.298H175.297H175.297H175.296H175.296H175.295H175.295H175.294H175.294H175.293H175.293H175.292H175.291H175.291H175.29H175.29H175.289H175.289H175.288H175.288H175.287H175.287H175.286H175.286H175.285H175.285H175.284H175.284H175.283H175.282H175.282H175.281H175.281H175.28H175.28H175.279H175.279H175.278H175.278H175.277H175.277H175.276H175.276H175.275H175.275H175.274H175.273H175.273H175.272H175.272H175.271H175.271H175.27H175.27H175.269H175.269H175.268H175.268H175.267H175.267H175.266H175.265H175.265H175.264H175.264H175.263H175.263H175.262H175.262H175.261H175.261H175.26H175.26H175.259H175.258H175.258H175.257H175.257H175.256H175.256H175.255H175.255H175.254H175.254H175.253H175.253H175.252H175.252H175.251H175.25H175.25H175.249H175.249H175.248H175.248H175.247H175.247H175.246H175.246H175.245H175.245H175.244H175.243H175.243H175.242H175.242H175.241H175.241H175.24H175.24H175.239H175.239H175.238H175.238H175.237H175.236H175.236H175.235H175.235H175.234H175.234H175.233H175.233H175.232H175.232H175.231H175.231H175.23H175.229H175.229H175.228H175.228H175.227H175.227H175.226H175.226H175.225H175.225H175.224H175.224H175.223H175.222H175.222H175.221H175.221H175.22H175.22H175.219H175.219H175.218H175.218H175.217H175.217H175.216H175.215H175.215H175.214H175.214H175.213H175.213H175.212H175.212H175.211H175.211H175.21H175.21H175.209H175.208H175.208H175.207H175.207H175.206H175.206H175.205H175.205H175.204H175.204H175.203H175.202H175.202H175.201H175.201H175.2H175.2H175.199H175.199H175.198H175.198H175.197H175.197H175.196H175.195H175.195H175.194H175.194H175.193H175.193H175.192H175.192H175.191H175.191H175.19H175.189H175.189H175.188H175.188H175.187H175.187H175.186H175.186H175.185H175.185H175.184H175.183H175.183H175.182H175.182H175.181H175.181H175.18H175.18H175.179H175.179H175.178H175.177H175.177H175.176H175.176H175.175H175.175H175.174H175.174H175.173H175.173H175.172H175.171H175.171H175.17H175.17H175.169H175.169H175.168H175.168H175.167H175.167H175.166H175.165H175.165H175.164H175.164H175.163H175.163H175.162H175.162H175.161H175.161H175.16H175.159H175.159H175.158H175.158H175.157H175.157H175.156H175.156H175.155H175.155H175.154H175.153H175.153H175.152H175.152H175.151H175.151H175.15H175.15H175.149H175.149H175.148H175.147H175.147H175.146H175.146H175.145H175.145H175.144H175.144H175.143H175.143H175.142H175.141H175.141H175.14H175.14H175.139H175.139H175.138H175.138H175.137H175.137H175.136H175.135H175.135H175.134H175.134H175.133H175.133H175.132H175.132H175.131H175.131H175.13H175.129H175.129H175.128H175.128H175.127H175.127H175.126H175.126H175.125H175.125H175.124H175.123H175.123H175.122H175.122H175.121H175.121H175.12H175.12H175.119H175.119H175.118H175.117H175.117H175.116H175.116H175.115H175.115H175.114H175.114H175.113H175.113H175.112H175.111H175.111H175.11H175.11H175.104H27.6586L49.5709 112.803L49.5711 112.803C52.5129 102.199 62.0032 95.1268 73.3561 95.1268H106.607L95.6099 134.767L95.4341 135.401H96.0917H151.618H151.886H152.118V135.4C163.441 135.276 175.032 126.151 178.159 114.898L178.159 114.898C179.736 109.215 178.864 104.018 176.115 100.232C173.513 96.6474 169.27 94.3814 163.976 94.1469L163.996 94.1268H163.059H162.79H107.926L119.757 51.0274C119.758 51.027 119.758 51.0267 119.758 51.0263C122.7 40.4172 132.195 33.3516 143.542 33.3516H181.044L181.036 33.384L181.691 33.3745C181.855 33.3721 182.007 33.3676 182.155 33.3632C182.355 33.3573 182.548 33.3516 182.755 33.3516C204.637 33.3516 221.947 42.1866 232.283 56.4263C242.621 70.6688 246.026 90.3794 239.97 112.21C237.713 120.347 234.295 128.206 229.949 135.605Z" stroke="#696B65"/>
</svg>
