<svg width="93" height="34" viewBox="0 0 93 34" fill="none" xmlns="http://www.w3.org/2000/svg">
<g clip-path="url(#clip0_427_1407)">
<path fill-rule="evenodd" clip-rule="evenodd" d="M26.724 13.5426C27.2977 12.5653 27.7491 11.5269 28.0474 10.4511C29.6478 4.67851 26.2534 0 20.466 0C20.4193 0 20.3719 0.0023371 20.3253 0.00301859L20.326 0H15.3135C13.7942 0 12.5197 0.947559 12.1249 2.37206L10.5474 8.12177H17.8427L17.8419 8.12255C17.8542 8.12255 17.8657 8.12177 17.878 8.12177C19.3445 8.12177 20.2044 9.30737 19.7989 10.7693C19.3927 12.2318 17.8764 13.4167 16.4098 13.4167C16.3976 13.4167 16.3861 13.416 16.3747 13.416V13.4167H9.07858L10.5467 8.12177H6.09115C4.57104 8.12177 3.29727 9.07011 2.90251 10.4938L0 20.9022H19.4615H19.4608C19.473 20.9022 19.4853 20.9022 19.4967 20.9022C20.9632 20.9022 21.8232 22.087 21.4177 23.5489C21.0122 25.0115 19.4952 26.1964 18.0287 26.1964C18.0172 26.1964 18.0057 26.1956 17.9934 26.1956V26.1964H8.04963C6.53028 26.1964 5.25574 27.1447 4.86098 28.5692L3.35541 34H17.8863L17.8871 33.9969C17.9337 33.9977 17.9789 34 18.0263 34C23.8138 34 29.8024 29.3215 31.4028 23.5489C32.7118 18.8269 30.6769 14.8381 26.724 13.5426Z" fill="#1CF593"/>
<path fill-rule="evenodd" clip-rule="evenodd" d="M58.5112 27.345C58.2774 28.6828 57.1223 29.6572 55.7711 29.6572H55.2846L55.2869 29.6454C53.9027 29.5857 53.4373 28.7395 53.6972 27.2446C53.7598 26.8813 53.8815 25.3149 55.7971 25.3149H58.8656C58.7427 26.0148 58.6211 26.7168 58.5112 27.345ZM64.7177 19.8688C65.3307 16.3535 64.0882 14.4238 60.5579 14.4238H53.7278C52.3932 14.4238 51.2463 15.3747 50.9936 16.6922L50.5496 19.0183H58.6611C59.2151 19.0183 59.6013 19.4296 59.5812 19.9661C59.5801 20.0173 59.5304 20.3817 59.508 20.465C59.3946 20.902 58.9978 21.2247 58.5277 21.2247H54.1944C51.6586 21.2247 49.5339 22.8039 49.0933 25.3149L48.5311 28.5546C47.9228 32.0699 49.1618 33.9996 52.6932 33.9996H57.4907C61.8028 33.9996 62.659 31.6991 63.1338 28.9702L63.9618 24.2112C63.9618 24.2112 64.433 21.5036 64.7177 19.8688Z" fill="#1CF593"/>
<path fill-rule="evenodd" clip-rule="evenodd" d="M40.8537 19.0183H40.8702H48.1688L48.5923 16.7018C48.8071 15.4496 47.9434 14.4238 46.6728 14.4238H40.0931C34.242 14.4238 33.7117 19.0525 34.3547 21.2781C34.4769 21.7044 34.9562 22.3402 35.1827 22.5464L39.5866 27.5684C40.4764 28.5321 40.4609 29.4798 39.1583 29.4798H33.9857C33.1671 29.4798 32.4683 30.0696 32.3307 30.8774L31.7969 33.9996H41.257C43.8753 33.9996 45.5006 32.7707 46.5032 30.808C46.7215 30.3816 47.2921 28.1133 45.9812 26.6857L40.3447 20.5462C39.7728 20.0333 40.086 19.0289 40.8537 19.0183Z" fill="#1CF593"/>
<path fill-rule="evenodd" clip-rule="evenodd" d="M87.1748 21.1783C87.1111 21.5416 86.9906 23.1079 85.0748 23.1079H82.0062C82.1279 22.4081 82.2508 21.7062 82.3606 21.078C82.5933 19.7402 83.7496 18.7659 85.0996 18.7659H85.5875L85.5851 18.7776C86.9693 18.8385 87.4347 19.6847 87.1748 21.1783ZM88.1789 14.4238H83.3824C79.0689 14.4238 78.2126 16.7252 77.7378 19.4518L76.9099 24.2116C76.9099 24.2116 76.4374 26.9202 76.1539 28.5538C75.5409 32.0689 76.7834 33.9996 80.3138 33.9996H87.1443C88.4789 33.9996 89.6258 33.0465 89.8785 31.7302L90.3215 29.4053H82.2107C81.6567 29.4053 81.2705 28.9929 81.2906 28.4565C81.2917 28.4063 81.3414 28.0409 81.3626 27.9587C81.4772 27.5206 81.8741 27.1979 82.3442 27.1979H86.6765C89.2135 27.1979 91.3384 25.6188 91.7801 23.108L92.34 19.8685C92.9495 16.3534 91.7104 14.4238 88.1789 14.4238Z" fill="#1CF593"/>
<path fill-rule="evenodd" clip-rule="evenodd" d="M74.7244 15.031L75.1454 12.8607H77.5059L78.3563 7.55566H78.32H78.0482H76.3773H76.3688C73.2293 7.55566 70.5439 9.83018 70.0025 12.9465L69.6946 14.9966C68.4029 14.9966 67.2979 15.9319 67.0763 17.2142L66.715 19.2439H68.9497L66.3867 34.0001H69.0775C70.4331 34.0001 71.5936 33.0175 71.8269 31.6718L74.003 18.5455L74.7244 15.031Z" fill="#1CF593"/>
<mask id="mask0_427_1407" style="mask-type:alpha" maskUnits="userSpaceOnUse" x="61" y="0" width="17" height="27">
<path fill-rule="evenodd" clip-rule="evenodd" d="M68.6953 18.9691L68.2743 21.1395H65.9139L65.0635 26.4444H65.0998H65.3715H67.0425H67.0509C70.1904 26.4444 72.8758 24.1699 73.4172 21.0535L73.7251 19.0035C75.0168 19.0035 76.1218 18.0681 76.3435 16.7859L76.7047 14.7563H74.4701L77.033 0H74.3422C72.9867 0 71.8261 0.982608 71.5928 2.32816L69.4167 14.8604H65.2915L63.639 16.7859L61.9219 18.9691H68.6953Z" fill="#1CF593"/>
</mask>
<g mask="url(#mask0_427_1407)">
<path d="M74.4564 14.7676L73.7695 19.0605L76.517 19.9191L76.8605 14.7676H74.4564Z" fill="#1CF593"/>
</g>
</g>
<defs>
<clipPath id="clip0_427_1407">
<rect width="92.4876" height="34" fill="white"/>
</clipPath>
</defs>
</svg>
