<svg width="177" height="188" viewBox="0 0 177 188" fill="none" xmlns="http://www.w3.org/2000/svg">
<path fill-rule="evenodd" clip-rule="evenodd" d="M148.753 74.8828C151.947 69.4786 154.459 63.7369 156.12 57.7885C165.029 25.8694 146.134 0 113.92 0C113.66 0 113.396 0.0126562 113.136 0.016875L113.14 0H85.2397C76.7825 0 69.6881 5.23969 67.4908 13.1161L58.71 44.9086H99.3178L99.3136 44.9129C99.3817 44.9129 99.4456 44.9086 99.5137 44.9086C107.677 44.9086 112.463 51.4646 110.206 59.5477C107.945 67.635 99.5052 74.1867 91.3419 74.1867C91.2738 74.1867 91.2099 74.1825 91.146 74.1825V74.1867H50.534L58.7058 44.9086H33.9051C25.4437 44.9086 18.3535 50.1525 16.1562 58.0247L0 115.577H108.329H108.324C108.392 115.577 108.461 115.577 108.524 115.577C116.688 115.577 121.474 122.129 119.217 130.212C116.96 138.299 108.516 144.851 100.353 144.851C100.289 144.851 100.225 144.846 100.157 144.846V144.851H44.8065C36.3494 144.851 29.255 150.095 27.0576 157.971L18.6772 188H99.5605L99.5648 187.983C99.8246 187.987 100.076 188 100.34 188C132.554 188 165.889 162.131 174.797 130.212C182.083 104.102 170.756 82.0462 148.753 74.8828Z" fill="#1CF593"/>
</svg>
