<svg width="154" height="154" viewBox="0 0 154 154" fill="none" xmlns="http://www.w3.org/2000/svg">
<g clip-path="url(#clip0_22317_213232)">
<rect width="154" height="154" fill="#151413"/>
<path d="M68.032 77.7125C67.2323 75.1345 65.3886 69.1775 65.3886 69.035L63.4922 70.1044V85.3187L65.389 86.4085V75.8447L68.7183 88.3251L70.3324 89.2535V65.7666L68.0523 67.0178L68.032 77.7125Z" fill="#353230"/>
<path d="M77.5039 63.8101L82.8812 66.9369L84.1126 65.023L77.5039 61.1445L72.2695 64.2759V90.2633L74.4094 91.6745V78.5586H82.3785V75.9161H74.4094V65.5672L77.5039 63.8101Z" fill="#353230"/>
<path d="M83.9922 67.5415L86.8377 69.4001V88.4283L89.1989 87.1139V70.6914L92.1228 72.6883V70.1887L85.1636 65.7891L83.9922 67.5415Z" fill="#353230"/>
<path d="M77.4975 56.5L59.5 66.9369V87.6194L77.5279 98.006L95.5 87.6143V66.9318L77.4975 56.5ZM61.6376 86.4088V68.0668L77.4975 58.8811L93.3629 68.0617V86.4037L77.5279 95.5848L61.6376 86.4088Z" fill="#353230"/>
<g opacity="0.2">
<path d="M8.03202 111.462C7.23234 108.885 5.38855 102.927 5.38855 102.785L3.49219 103.854V119.069L5.38901 120.158V109.595L8.71825 122.075L10.3324 123.003V99.5166L8.05231 100.768L8.03202 111.462Z" fill="#353230"/>
<path d="M17.5039 97.5601L22.8812 100.687L24.1126 98.773L17.5039 94.8945L12.2695 98.0259V124.013L14.4094 125.425V112.309H22.3785V109.666H14.4094V99.3172L17.5039 97.5601Z" fill="#353230"/>
<path d="M23.9922 101.292L26.8377 103.15V122.178L29.1989 120.864V104.441L32.1228 106.438V103.939L25.1636 99.5391L23.9922 101.292Z" fill="#353230"/>
<path d="M17.4975 90.25L-0.5 100.687V121.369L17.5279 131.756L35.5 121.364V100.682L17.4975 90.25ZM1.63756 120.159V101.817L17.4975 92.6311L33.3629 101.812V120.154L17.5279 129.335L1.63756 120.159Z" fill="#353230"/>
<path d="M8.03202 43.9625C7.23234 41.3845 5.38855 35.4275 5.38855 35.285L3.49219 36.3544V51.5687L5.38901 52.6585V42.0947L8.71825 54.5751L10.3324 55.5035V32.0166L8.05231 33.2678L8.03202 43.9625Z" fill="#353230"/>
<path d="M17.5039 30.0601L22.8812 33.1869L24.1126 31.273L17.5039 27.3945L12.2695 30.5259V56.5133L14.4094 57.9245V44.8086H22.3785V42.1661H14.4094V31.8172L17.5039 30.0601Z" fill="#353230"/>
<path d="M23.9922 33.7915L26.8377 35.6501V54.6783L29.1989 53.3639V36.9414L32.1228 38.9383V36.4387L25.1636 32.0391L23.9922 33.7915Z" fill="#353230"/>
<path d="M17.4975 22.75L-0.5 33.1869V53.8694L17.5279 64.256L35.5 53.8643V33.1818L17.4975 22.75ZM1.63756 52.6588V34.3168L17.4975 25.1311L33.3629 34.3117V52.6537L17.5279 61.8348L1.63756 52.6588Z" fill="#353230"/>
<path d="M87.532 111.462C86.7323 108.885 84.8886 102.927 84.8886 102.785L82.9922 103.854V119.069L84.889 120.158V109.595L88.2183 122.075L89.8324 123.003V99.5166L87.5523 100.768L87.532 111.462Z" fill="#353230"/>
<path d="M97.0039 97.5601L102.381 100.687L103.613 98.773L97.0039 94.8945L91.7695 98.0259V124.013L93.9094 125.425V112.309H101.879V109.666H93.9094V99.3172L97.0039 97.5601Z" fill="#353230"/>
<path d="M103.492 101.292L106.338 103.15V122.178L108.699 120.864V104.441L111.623 106.438V103.939L104.664 99.5391L103.492 101.292Z" fill="#353230"/>
<path d="M96.9975 90.25L79 100.687V121.369L97.0279 131.756L115 121.364V100.682L96.9975 90.25ZM81.1376 120.159V101.817L96.9975 92.6311L112.863 101.812V120.154L97.0279 129.335L81.1376 120.159Z" fill="#353230"/>
<path d="M87.532 43.9625C86.7323 41.3845 84.8886 35.4275 84.8886 35.285L82.9922 36.3544V51.5687L84.889 52.6585V42.0947L88.2183 54.5751L89.8324 55.5035V32.0166L87.5523 33.2678L87.532 43.9625Z" fill="#353230"/>
<path d="M97.0039 30.0601L102.381 33.1869L103.613 31.273L97.0039 27.3945L91.7695 30.5259V56.5133L93.9094 57.9245V44.8086H101.879V42.1661H93.9094V31.8172L97.0039 30.0601Z" fill="#353230"/>
<path d="M103.492 33.7915L106.338 35.6501V54.6783L108.699 53.3639V36.9414L111.623 38.9383V36.4387L104.664 32.0391L103.492 33.7915Z" fill="#353230"/>
<path d="M96.9975 22.75L79 33.1869V53.8694L97.0279 64.256L115 53.8643V33.1818L96.9975 22.75ZM81.1376 52.6588V34.3168L96.9975 25.1311L112.863 34.3117V52.6537L97.0279 61.8348L81.1376 52.6588Z" fill="#353230"/>
<path d="M48.532 111.462C47.7323 108.885 45.8886 102.927 45.8886 102.785L43.9922 103.854V119.069L45.889 120.158V109.595L49.2183 122.075L50.8324 123.003V99.5166L48.5523 100.768L48.532 111.462Z" fill="#353230"/>
<path d="M58.0039 97.5601L63.3812 100.687L64.6126 98.773L58.0039 94.8945L52.7695 98.0259V124.013L54.9094 125.425V112.309H62.8785V109.666H54.9094V99.3172L58.0039 97.5601Z" fill="#353230"/>
<path d="M64.4922 101.292L67.3377 103.15V122.178L69.6989 120.864V104.441L72.6228 106.438V103.939L65.6636 99.5391L64.4922 101.292Z" fill="#353230"/>
<path d="M57.9975 90.25L40 100.687V121.369L58.0279 131.756L76 121.364V100.682L57.9975 90.25ZM42.1376 120.159V101.817L57.9975 92.6311L73.8629 101.812V120.154L58.0279 129.335L42.1376 120.159Z" fill="#353230"/>
<path d="M48.532 43.9625C47.7323 41.3845 45.8886 35.4275 45.8886 35.285L43.9922 36.3544V51.5687L45.889 52.6585V42.0947L49.2183 54.5751L50.8324 55.5035V32.0166L48.5523 33.2678L48.532 43.9625Z" fill="#353230"/>
<path d="M58.0039 30.0601L63.3812 33.1869L64.6126 31.273L58.0039 27.3945L52.7695 30.5259V56.5133L54.9094 57.9245V44.8086H62.8785V42.1661H54.9094V31.8172L58.0039 30.0601Z" fill="#353230"/>
<path d="M64.4922 33.7915L67.3377 35.6501V54.6783L69.6989 53.3639V36.9414L72.6228 38.9383V36.4387L65.6636 32.0391L64.4922 33.7915Z" fill="#353230"/>
<path d="M57.9975 22.75L40 33.1869V53.8694L58.0279 64.256L76 53.8643V33.1818L57.9975 22.75ZM42.1376 52.6588V34.3168L57.9975 25.1311L73.8629 34.3117V52.6537L58.0279 61.8348L42.1376 52.6588Z" fill="#353230"/>
<path d="M128.032 111.462C127.232 108.885 125.389 102.927 125.389 102.785L123.492 103.854V119.069L125.389 120.158V109.595L128.718 122.075L130.332 123.003V99.5166L128.052 100.768L128.032 111.462Z" fill="#353230"/>
<path d="M137.504 97.5601L142.881 100.687L144.113 98.773L137.504 94.8945L132.27 98.0259V124.013L134.409 125.425V112.309H142.379V109.666H134.409V99.3172L137.504 97.5601Z" fill="#353230"/>
<path d="M143.992 101.292L146.838 103.15V122.178L149.199 120.864V104.441L152.123 106.438V103.939L145.164 99.5391L143.992 101.292Z" fill="#353230"/>
<path d="M137.497 90.25L119.5 100.687V121.369L137.528 131.756L155.5 121.364V100.682L137.497 90.25ZM121.638 120.159V101.817L137.497 92.6311L153.363 101.812V120.154L137.528 129.335L121.638 120.159Z" fill="#353230"/>
<path d="M128.032 43.9625C127.232 41.3845 125.389 35.4275 125.389 35.285L123.492 36.3544V51.5687L125.389 52.6585V42.0947L128.718 54.5751L130.332 55.5035V32.0166L128.052 33.2678L128.032 43.9625Z" fill="#353230"/>
<path d="M137.504 30.0601L142.881 33.1869L144.113 31.273L137.504 27.3945L132.27 30.5259V56.5133L134.409 57.9245V44.8086H142.379V42.1661H134.409V31.8172L137.504 30.0601Z" fill="#353230"/>
<path d="M143.992 33.7915L146.838 35.6501V54.6783L149.199 53.3639V36.9414L152.123 38.9383V36.4387L145.164 32.0391L143.992 33.7915Z" fill="#353230"/>
<path d="M137.497 22.75L119.5 33.1869V53.8694L137.528 64.256L155.5 53.8643V33.1818L137.497 22.75ZM121.638 52.6588V34.3168L137.497 25.1311L153.363 34.3117V52.6537L137.528 61.8348L121.638 52.6588Z" fill="#353230"/>
<path d="M28.282 77.7125C27.4823 75.1345 25.6386 69.1775 25.6386 69.035L23.7422 70.1044V85.3187L25.639 86.4085V75.8447L28.9683 88.3251L30.5824 89.2535V65.7666L28.3023 67.0178L28.282 77.7125Z" fill="#353230"/>
<path d="M37.7539 63.8101L43.1312 66.9369L44.3626 65.023L37.7539 61.1445L32.5195 64.2759V90.2633L34.6594 91.6745V78.5586H42.6285V75.9161H34.6594V65.5672L37.7539 63.8101Z" fill="#353230"/>
<path d="M44.2422 67.5415L47.0877 69.4001V88.4283L49.4489 87.1139V70.6914L52.3728 72.6883V70.1887L45.4136 65.7891L44.2422 67.5415Z" fill="#353230"/>
<path d="M37.7475 56.5L19.75 66.9369V87.6194L37.7779 98.006L55.75 87.6143V66.9318L37.7475 56.5ZM21.8876 86.4088V68.0668L37.7475 58.8811L53.6129 68.0617V86.4037L37.7779 95.5848L21.8876 86.4088Z" fill="#353230"/>
<path d="M28.282 145.212C27.4823 142.635 25.6386 136.677 25.6386 136.535L23.7422 137.604V152.819L25.639 153.908V143.345L28.9683 155.825L30.5824 156.753V133.267L28.3023 134.518L28.282 145.212Z" fill="#353230"/>
<path d="M37.7539 131.31L43.1312 134.437L44.3626 132.523L37.7539 128.645L32.5195 131.776V157.763L34.6594 159.175V146.059H42.6285V143.416H34.6594V133.067L37.7539 131.31Z" fill="#353230"/>
<path d="M44.2422 135.042L47.0877 136.9V155.928L49.4489 154.614V138.191L52.3728 140.188V137.689L45.4136 133.289L44.2422 135.042Z" fill="#353230"/>
<path d="M37.7475 124L19.75 134.437V155.119L37.7779 165.506L55.75 155.114V134.432L37.7475 124ZM21.8876 153.909V135.567L37.7475 126.381L53.6129 135.562V153.904L37.7779 163.085L21.8876 153.909Z" fill="#353230"/>
<path d="M28.282 10.2125C27.4823 7.63451 25.6386 1.67747 25.6386 1.53497L23.7422 2.60444V17.8187L25.639 18.9085V8.34472L28.9683 20.8251L30.5824 21.7535V-1.7334L28.3023 -0.482223L28.282 10.2125Z" fill="#353230"/>
<path d="M37.7539 -3.68986L43.1312 -0.563076L44.3626 -2.47696L37.7539 -6.35547L32.5195 -3.22407V22.7633L34.6594 24.1745V11.0586H42.6285V8.41606H34.6594V-1.93277L37.7539 -3.68986Z" fill="#353230"/>
<path d="M44.2422 0.0415389L47.0877 1.90009V20.9283L49.4489 19.6139V3.19138L52.3728 5.18828V2.6887L45.4136 -1.71094L44.2422 0.0415389Z" fill="#353230"/>
<path d="M37.7475 -11L19.75 -0.563084V20.1194L37.7779 30.506L55.75 20.1143V-0.568157L37.7475 -11ZM21.8876 18.9088V0.566801L37.7475 -8.61894L53.6129 0.561728V18.9037L37.7779 28.0848L21.8876 18.9088Z" fill="#353230"/>
<path d="M107.782 77.7125C106.982 75.1345 105.139 69.1775 105.139 69.035L103.242 70.1044V85.3187L105.139 86.4085V75.8447L108.468 88.3251L110.082 89.2535V65.7666L107.802 67.0178L107.782 77.7125Z" fill="#353230"/>
<path d="M117.254 63.8101L122.631 66.9369L123.863 65.023L117.254 61.1445L112.02 64.2759V90.2633L114.159 91.6745V78.5586H122.129V75.9161H114.159V65.5672L117.254 63.8101Z" fill="#353230"/>
<path d="M123.742 67.5415L126.588 69.4001V88.4283L128.949 87.1139V70.6914L131.873 72.6883V70.1887L124.914 65.7891L123.742 67.5415Z" fill="#353230"/>
<path d="M117.247 56.5L99.25 66.9369V87.6194L117.278 98.006L135.25 87.6143V66.9318L117.247 56.5ZM101.388 86.4088V68.0668L117.247 58.8811L133.113 68.0617V86.4037L117.278 95.5848L101.388 86.4088Z" fill="#353230"/>
<path d="M107.782 145.212C106.982 142.635 105.139 136.677 105.139 136.535L103.242 137.604V152.819L105.139 153.908V143.345L108.468 155.825L110.082 156.753V133.267L107.802 134.518L107.782 145.212Z" fill="#353230"/>
<path d="M117.254 131.31L122.631 134.437L123.863 132.523L117.254 128.645L112.02 131.776V157.763L114.159 159.175V146.059H122.129V143.416H114.159V133.067L117.254 131.31Z" fill="#353230"/>
<path d="M123.742 135.042L126.588 136.9V155.928L128.949 154.614V138.191L131.873 140.188V137.689L124.914 133.289L123.742 135.042Z" fill="#353230"/>
<path d="M117.247 124L99.25 134.437V155.119L117.278 165.506L135.25 155.114V134.432L117.247 124ZM101.388 153.909V135.567L117.247 126.381L133.113 135.562V153.904L117.278 163.085L101.388 153.909Z" fill="#353230"/>
<path d="M107.782 10.2125C106.982 7.63451 105.139 1.67747 105.139 1.53497L103.242 2.60444V17.8187L105.139 18.9085V8.34472L108.468 20.8251L110.082 21.7535V-1.7334L107.802 -0.482223L107.782 10.2125Z" fill="#353230"/>
<path d="M117.254 -3.68986L122.631 -0.563076L123.863 -2.47696L117.254 -6.35547L112.02 -3.22407V22.7633L114.159 24.1745V11.0586H122.129V8.41606H114.159V-1.93277L117.254 -3.68986Z" fill="#353230"/>
<path d="M123.742 0.0415389L126.588 1.90009V20.9283L128.949 19.6139V3.19138L131.873 5.18828V2.6887L124.914 -1.71094L123.742 0.0415389Z" fill="#353230"/>
<path d="M117.247 -11L99.25 -0.563084V20.1194L117.278 30.506L135.25 20.1143V-0.568157L117.247 -11ZM101.388 18.9088V0.566801L117.247 -8.61894L133.113 0.561728V18.9037L117.278 28.0848L101.388 18.9088Z" fill="#353230"/>
<path d="M68.032 145.212C67.2323 142.635 65.3886 136.677 65.3886 136.535L63.4922 137.604V152.819L65.389 153.908V143.345L68.7183 155.825L70.3324 156.753V133.267L68.0523 134.518L68.032 145.212Z" fill="#353230"/>
<path d="M77.5039 131.31L82.8812 134.437L84.1126 132.523L77.5039 128.645L72.2695 131.776V157.763L74.4094 159.175V146.059H82.3785V143.416H74.4094V133.067L77.5039 131.31Z" fill="#353230"/>
<path d="M83.9922 135.042L86.8377 136.9V155.928L89.1989 154.614V138.191L92.1228 140.188V137.689L85.1636 133.289L83.9922 135.042Z" fill="#353230"/>
<path d="M77.4975 124L59.5 134.437V155.119L77.5279 165.506L95.5 155.114V134.432L77.4975 124ZM61.6376 153.909V135.567L77.4975 126.381L93.3629 135.562V153.904L77.5279 163.085L61.6376 153.909Z" fill="#353230"/>
<path d="M68.032 10.2125C67.2323 7.63451 65.3886 1.67747 65.3886 1.53497L63.4922 2.60444V17.8187L65.389 18.9085V8.34472L68.7183 20.8251L70.3324 21.7535V-1.7334L68.0523 -0.482223L68.032 10.2125Z" fill="#353230"/>
<path d="M77.5039 -3.68986L82.8812 -0.563076L84.1126 -2.47696L77.5039 -6.35547L72.2695 -3.22407V22.7633L74.4094 24.1745V11.0586H82.3785V8.41606H74.4094V-1.93277L77.5039 -3.68986Z" fill="#353230"/>
<path d="M83.9922 0.0415389L86.8377 1.90009V20.9283L89.1989 19.6139V3.19138L92.1228 5.18828V2.6887L85.1636 -1.71094L83.9922 0.0415389Z" fill="#353230"/>
<path d="M77.4975 -11L59.5 -0.563084V20.1194L77.5279 30.506L95.5 20.1143V-0.568157L77.4975 -11ZM61.6376 18.9088V0.566801L77.4975 -8.61894L93.3629 0.561728V18.9037L77.5279 28.0848L61.6376 18.9088Z" fill="#353230"/>
<path d="M147.532 77.7125C146.732 75.1345 144.889 69.1775 144.889 69.035L142.992 70.1044V85.3187L144.889 86.4085V75.8447L148.218 88.3251L149.832 89.2535V65.7666L147.552 67.0178L147.532 77.7125Z" fill="#353230"/>
<path d="M157.004 63.8101L162.381 66.9369L163.613 65.023L157.004 61.1445L151.77 64.2759V90.2633L153.909 91.6745V78.5586H161.879V75.9161H153.909V65.5672L157.004 63.8101Z" fill="#353230"/>
<path d="M156.997 56.5L139 66.9369V87.6194L157.028 98.006L175 87.6143V66.9318L156.997 56.5ZM141.138 86.4088V68.0668L156.997 58.8811L172.863 68.0617V86.4037L157.028 95.5848L141.138 86.4088Z" fill="#353230"/>
<path d="M147.532 145.212C146.732 142.635 144.889 136.677 144.889 136.535L142.992 137.604V152.819L144.889 153.908V143.345L148.218 155.825L149.832 156.753V133.267L147.552 134.518L147.532 145.212Z" fill="#353230"/>
<path d="M157.004 131.31L162.381 134.437L163.613 132.523L157.004 128.645L151.77 131.776V157.763L153.909 159.175V146.059H161.879V143.416H153.909V133.067L157.004 131.31Z" fill="#353230"/>
<path d="M156.997 124L139 134.437V155.119L157.028 165.506L175 155.114V134.432L156.997 124ZM141.138 153.909V135.567L156.997 126.381L172.863 135.562V153.904L157.028 163.085L141.138 153.909Z" fill="#353230"/>
<path d="M-1.9961 63.8101L3.38123 66.9369L4.61258 65.023L-1.9961 61.1445L-7.23047 64.2759V90.2633L-5.0906 91.6745V78.5586H2.87855V75.9161H-5.0906V65.5672L-1.9961 63.8101Z" fill="#353230"/>
<path d="M4.49219 67.5415L7.33765 69.4001V88.4283L9.69889 87.1139V70.6914L12.6228 72.6883V70.1887L5.66358 65.7891L4.49219 67.5415Z" fill="#353230"/>
<path d="M-2.00253 56.5L-20 66.9369V87.6194L-1.9721 98.006L16 87.6143V66.9318L-2.00253 56.5ZM-17.8624 86.4088V68.0668L-2.00253 58.8811L13.8629 68.0617V86.4037L-1.9721 95.5848L-17.8624 86.4088Z" fill="#353230"/>
<path d="M-1.9961 131.31L3.38123 134.437L4.61258 132.523L-1.9961 128.645L-7.23047 131.776V157.763L-5.0906 159.175V146.059H2.87855V143.416H-5.0906V133.067L-1.9961 131.31Z" fill="#353230"/>
<path d="M4.49219 135.042L7.33765 136.9V155.928L9.69889 154.614V138.191L12.6228 140.188V137.689L5.66358 133.289L4.49219 135.042Z" fill="#353230"/>
<path d="M-2.00253 124L-20 134.437V155.119L-1.9721 165.506L16 155.114V134.432L-2.00253 124ZM-17.8624 153.909V135.567L-2.00253 126.381L13.8629 135.562V153.904L-1.9721 163.085L-17.8624 153.909Z" fill="#353230"/>
<path d="M147.532 10.2125C146.732 7.63451 144.889 1.67747 144.889 1.53497L142.992 2.60444V17.8187L144.889 18.9085V8.34472L148.218 20.8251L149.832 21.7535V-1.7334L147.552 -0.482223L147.532 10.2125Z" fill="#353230"/>
<path d="M157.004 -3.68986L162.381 -0.563076L163.613 -2.47696L157.004 -6.35547L151.77 -3.22407V22.7633L153.909 24.1745V11.0586H161.879V8.41606H153.909V-1.93277L157.004 -3.68986Z" fill="#353230"/>
<path d="M156.997 -11L139 -0.563084V20.1194L157.028 30.506L175 20.1143V-0.568157L156.997 -11ZM141.138 18.9088V0.566801L156.997 -8.61894L172.863 0.561728V18.9037L157.028 28.0848L141.138 18.9088Z" fill="#353230"/>
<path d="M-1.9961 -3.68986L3.38123 -0.563076L4.61258 -2.47696L-1.9961 -6.35547L-7.23047 -3.22407V22.7633L-5.0906 24.1745V11.0586H2.87855V8.41606H-5.0906V-1.93277L-1.9961 -3.68986Z" fill="#353230"/>
<path d="M4.49219 0.0415389L7.33765 1.90009V20.9283L9.69889 19.6139V3.19138L12.6228 5.18828V2.6887L5.66358 -1.71094L4.49219 0.0415389Z" fill="#353230"/>
<path d="M-2.00253 -11L-20 -0.563084V20.1194L-1.9721 30.506L16 20.1143V-0.568157L-2.00253 -11ZM-17.8624 18.9088V0.566801L-2.00253 -8.61894L13.8629 0.561728V18.9037L-1.9721 28.0848L-17.8624 18.9088Z" fill="#353230"/>
</g>
</g>
<defs>
<clipPath id="clip0_22317_213232">
<rect width="154" height="154" fill="white"/>
</clipPath>
</defs>
</svg>
